<?xml version="1.0" encoding="UTF-8" standalone="no"?>
<!-- Created with Inkscape (http://www.inkscape.org/) -->

<svg
   xmlns:dc="http://purl.org/dc/elements/1.1/"
   xmlns:cc="http://creativecommons.org/ns#"
   xmlns:rdf="http://www.w3.org/1999/02/22-rdf-syntax-ns#"
   xmlns:svg="http://www.w3.org/2000/svg"
   xmlns="http://www.w3.org/2000/svg"
   xmlns:sodipodi="http://sodipodi.sourceforge.net/DTD/sodipodi-0.dtd"
   xmlns:inkscape="http://www.inkscape.org/namespaces/inkscape"
   version="1.1"
   id="svg2"
   xml:space="preserve"
   width="808"
   height="400"
   viewBox="0 0 808 400"
   sodipodi:docname="CloudFMI_architecture.svg"
   inkscape:version="0.92.3 (2405546, 2018-03-11)"><metadata
     id="metadata8"><rdf:RDF><cc:Work
         rdf:about=""><dc:format>image/svg+xml</dc:format><dc:type
           rdf:resource="http://purl.org/dc/dcmitype/StillImage" /><dc:title></dc:title></cc:Work></rdf:RDF></metadata><defs
     id="defs6"><clipPath
       clipPathUnits="userSpaceOnUse"
       id="clipPath18"><path
         d="M 0,0 H 2525 V 1249.0214 H 0 Z"
         id="path16"
         inkscape:connector-curvature="0"
         style="clip-rule:evenodd" /></clipPath><clipPath
       clipPathUnits="userSpaceOnUse"
       id="clipPath30"><path
         d="M 0,0 H 2525 V 1249.0214 H 0 Z"
         id="path28"
         inkscape:connector-curvature="0"
         style="clip-rule:evenodd" /></clipPath></defs><sodipodi:namedview
     pagecolor="#ffffff"
     bordercolor="#666666"
     borderopacity="1"
     objecttolerance="10"
     gridtolerance="10"
     guidetolerance="10"
     inkscape:pageopacity="0"
     inkscape:pageshadow="2"
     inkscape:window-width="1920"
     inkscape:window-height="1017"
     id="namedview4"
     showgrid="false"
     inkscape:zoom="1.0091817"
     inkscape:cx="433.82255"
     inkscape:cy="176.68912"
     inkscape:window-x="-8"
     inkscape:window-y="-8"
     inkscape:window-maximized="1"
     inkscape:current-layer="g10" /><g
     id="g10"
     inkscape:groupmode="layer"
     inkscape:label="CloudFMI_architecture"
     transform="matrix(0.31999998,0,0,0.31999998,0,1e-5)"><g
       id="g12"><g
         id="g14"
         clip-path="url(#clipPath18)"><g
           id="g20"
           transform="scale(2.995255)"><path
             d="M 0,0 H 843 V 417 H 0 Z"
             style="fill:#ffffff;fill-opacity:1;fill-rule:nonzero;stroke:none"
             id="path22"
             inkscape:connector-curvature="0" /></g></g></g><g
       id="g24"><g
         id="g26"
         clip-path="url(#clipPath30)"><g
           id="g32"
           transform="matrix(2.995255,0,0,2.995255,1.4976275,1.4976275)"><path
             d="M 1,1 H 841 V 416 H 1 Z"
             style="fill:#ffffff;fill-opacity:1;fill-rule:nonzero;stroke:none"
             id="path34"
             inkscape:connector-curvature="0" /><path
             d="M 1,1 H 841 V 416 H 1 Z"
             style="fill:none;stroke:#000000;stroke-width:1;stroke-linecap:butt;stroke-linejoin:miter;stroke-miterlimit:10;stroke-dasharray:none;stroke-opacity:1"
             id="path36"
             inkscape:connector-curvature="0" /><path
             d="m 538,120.5 h 180 v 260 H 538 Z"
             style="fill:#ffffff;fill-opacity:1;fill-rule:nonzero;stroke:none"
             id="path38"
             inkscape:connector-curvature="0" /><path
             d="m 538,120.5 h 180 v 260 H 538 Z"
             style="fill:none;stroke:#000000;stroke-width:1;stroke-linecap:butt;stroke-linejoin:miter;stroke-miterlimit:10;stroke-dasharray:none;stroke-opacity:1"
             id="path40"
             inkscape:connector-curvature="0" /><path
             d="m 538,120.5 h 180 v 20 H 538 Z"
             style="fill:#f5f5f5;fill-opacity:1;fill-rule:nonzero;stroke:none"
             id="path42"
             inkscape:connector-curvature="0" /><path
             d="m 538,120.5 h 180 v 20 H 538 Z"
             style="fill:none;stroke:#666666;stroke-width:1;stroke-linecap:butt;stroke-linejoin:miter;stroke-miterlimit:10;stroke-dasharray:none;stroke-opacity:1"
             id="path44"
             inkscape:connector-curvature="0" /></g><g
           id="g46"
           transform="matrix(2.995255,0,0,2.995255,1653.3807,374.40686)"><text
             transform="translate(0,11)"
             style="font-variant:normal;font-weight:normal;font-size:12px;font-family:Helvetica;-inkscape-font-specification:Helvetica;writing-mode:lr-tb;fill:#333333;fill-opacity:1;fill-rule:nonzero;stroke:none"
             id="text50"><tspan
               x="0 8.0039062 10.669922 20.666016 27.339844 30.005859 36.679688 40.013672 42.679688 49.353516 56.027344 59.361328 67.365234 73.365234 80.039062 86.039062 92.712891 96.046875 102.7207 106.7168 110.05078 118.05469 124.72852 131.40234 138.07617 141.41016 144.74414"
               y="0"
               sodipodi:role="line"
               id="tspan48">Simulation Executor Agent N</tspan></text>
</g><g
           id="g52"
           transform="matrix(2.995255,0,0,2.995255,1.4976275,1.4976275)"><path
             d="m 570,195.5 h 126 c 0.59668,0 1.17065,0.11418 1.72198,0.34253 0.55127,0.22835 1.03791,0.55351 1.4599,0.97548 0.42194,0.42195 0.74708,0.90858 0.97547,1.4599 0.22833,0.55131 0.34259,1.12533 0.34265,1.72209 v 21 c -6e-5,0.59673 -0.11432,1.17073 -0.34265,1.72205 -0.22839,0.55131 -0.55353,1.03796 -0.97547,1.45991 -0.42199,0.42195 -0.90863,0.7471 -1.4599,0.97546 -0.55133,0.22838 -1.1253,0.34256 -1.72198,0.34258 H 570 c -0.5968,-2e-5 -1.17084,-0.1142 -1.72217,-0.34258 -0.55127,-0.22836 -1.0379,-0.55351 -1.45984,-0.97546 -0.42193,-0.42195 -0.74713,-0.9086 -0.97546,-1.45991 C 565.61414,222.17073 565.49994,221.59673 565.5,221 v -21 c -6e-5,-0.59676 0.11414,-1.17078 0.34253,-1.72209 0.22833,-0.55132 0.55353,-1.03795 0.97546,-1.4599 0.42194,-0.42197 0.90857,-0.74713 1.45984,-0.97548 C 568.82916,195.61418 569.4032,195.5 570,195.5 Z"
             style="fill:#ffffff;fill-opacity:1;fill-rule:nonzero;stroke:none"
             id="path54"
             inkscape:connector-curvature="0" /><path
             d="m 570,195.5 h 126 c 0.59668,0 1.17065,0.11418 1.72198,0.34253 0.55127,0.22835 1.03791,0.55351 1.4599,0.97548 0.42194,0.42195 0.74708,0.90858 0.97547,1.4599 0.22833,0.55131 0.34259,1.12533 0.34265,1.72209 v 21 c -6e-5,0.59673 -0.11432,1.17073 -0.34265,1.72205 -0.22839,0.55131 -0.55353,1.03796 -0.97547,1.45991 -0.42199,0.42195 -0.90863,0.7471 -1.4599,0.97546 -0.55133,0.22838 -1.1253,0.34256 -1.72198,0.34258 H 570 c -0.5968,-2e-5 -1.17084,-0.1142 -1.72217,-0.34258 -0.55127,-0.22836 -1.0379,-0.55351 -1.45984,-0.97546 -0.42193,-0.42195 -0.74713,-0.9086 -0.97546,-1.45991 C 565.61414,222.17073 565.49994,221.59673 565.5,221 v -21 c -6e-5,-0.59676 0.11414,-1.17078 0.34253,-1.72209 0.22833,-0.55132 0.55353,-1.03795 0.97546,-1.4599 0.42194,-0.42197 0.90857,-0.74713 1.45984,-0.97548 C 568.82916,195.61418 569.4032,195.5 570,195.5 Z"
             style="fill:none;stroke:#000000;stroke-width:1;stroke-linecap:butt;stroke-linejoin:miter;stroke-miterlimit:10;stroke-dasharray:none;stroke-opacity:1"
             id="path56"
             inkscape:connector-curvature="0" /></g><g
           id="g58"
           transform="matrix(2.995255,0,0,2.995255,1737.2479,614.02728)"><text
             transform="translate(0.46875,11)"
             style="font-variant:normal;font-weight:normal;font-size:12px;font-family:Helvetica;-inkscape-font-specification:Helvetica;writing-mode:lr-tb;fill:#000000;fill-opacity:1;fill-rule:nonzero;stroke:none"
             id="text62"><tspan
               x="0 9.3339844 16.007812 19.341797 22.675781 28.675781 31.341797 41.337891 48.011719 50.677734 57.351562 60.685547 63.351562 70.025391 76.699219 80.033203 86.033203 92.707031 99.380859 102.71484"
               y="0"
               sodipodi:role="line"
               id="tspan60">Get simulation conf.</tspan></text>
</g><g
           id="g64"
           transform="matrix(2.995255,0,0,2.995255,1.4976275,1.4976275)"><path
             d="m 570,242.5 h 126 c 0.59668,0 1.17065,0.11417 1.72198,0.3425 0.55127,0.22838 1.03791,0.55354 1.4599,0.97551 0.42194,0.42193 0.74708,0.90857 0.97547,1.45988 0.22833,0.55132 0.34259,1.12535 0.34265,1.72211 v 21 c -6e-5,0.59671 -0.11432,1.17072 -0.34265,1.72202 -0.22839,0.55133 -0.55353,1.03796 -0.97547,1.45993 -0.42199,0.42193 -0.90863,0.7471 -1.4599,0.97546 -0.55133,0.22836 -1.1253,0.34256 -1.72198,0.34259 H 570 c -0.5968,-3e-5 -1.17084,-0.11423 -1.72217,-0.34259 -0.55127,-0.22836 -1.0379,-0.55353 -1.45984,-0.97546 -0.42193,-0.42197 -0.74713,-0.9086 -0.97546,-1.45993 C 565.61414,269.17072 565.49994,268.59671 565.5,268 v -21 c -6e-5,-0.59676 0.11414,-1.17081 0.34253,-1.72212 0.22833,-0.55132 0.55353,-1.03794 0.97546,-1.45987 0.42194,-0.42197 0.90857,-0.74713 1.45984,-0.97548 C 568.82916,242.61418 569.4032,242.5 570,242.5 Z"
             style="fill:#ffffff;fill-opacity:1;fill-rule:nonzero;stroke:none"
             id="path66"
             inkscape:connector-curvature="0" /><path
             d="m 570,242.5 h 126 c 0.59668,0 1.17065,0.11417 1.72198,0.3425 0.55127,0.22838 1.03791,0.55354 1.4599,0.97551 0.42194,0.42193 0.74708,0.90857 0.97547,1.45988 0.22833,0.55132 0.34259,1.12535 0.34265,1.72211 v 21 c -6e-5,0.59671 -0.11432,1.17072 -0.34265,1.72202 -0.22839,0.55133 -0.55353,1.03796 -0.97547,1.45993 -0.42199,0.42193 -0.90863,0.7471 -1.4599,0.97546 -0.55133,0.22836 -1.1253,0.34256 -1.72198,0.34259 H 570 c -0.5968,-3e-5 -1.17084,-0.11423 -1.72217,-0.34259 -0.55127,-0.22836 -1.0379,-0.55353 -1.45984,-0.97546 -0.42193,-0.42197 -0.74713,-0.9086 -0.97546,-1.45993 C 565.61414,269.17072 565.49994,268.59671 565.5,268 v -21 c -6e-5,-0.59676 0.11414,-1.17081 0.34253,-1.72212 0.22833,-0.55132 0.55353,-1.03794 0.97546,-1.45987 0.42194,-0.42197 0.90857,-0.74713 1.45984,-0.97548 C 568.82916,242.61418 569.4032,242.5 570,242.5 Z"
             style="fill:none;stroke:#000000;stroke-width:1;stroke-linecap:butt;stroke-linejoin:miter;stroke-miterlimit:10;stroke-dasharray:none;stroke-opacity:1"
             id="path68"
             inkscape:connector-curvature="0" /></g><g
           id="g70"
           transform="matrix(2.995255,0,0,2.995255,1746.2336,754.80426)"><text
             transform="translate(0.140625,11)"
             style="font-variant:normal;font-weight:normal;font-size:12px;font-family:Helvetica;-inkscape-font-specification:Helvetica;writing-mode:lr-tb;fill:#000000;fill-opacity:1;fill-rule:nonzero;stroke:none"
             id="text74"><tspan
               x="0 8.0039062 14.003906 20.677734 26.677734 33.351562 36.685547 43.359375 46.693359 52.693359 55.359375 65.355469 72.029297 74.695312 81.369141 84.703125 87.369141 94.042969"
               y="0"
               sodipodi:role="line"
               id="tspan72">Execute simulation</tspan></text>
</g><g
           id="g76"
           transform="matrix(2.995255,0,0,2.995255,1.4976275,1.4976275)"><path
             d="m 633,226 v 10.63"
             style="fill:none;stroke:#000000;stroke-width:1;stroke-linecap:butt;stroke-linejoin:miter;stroke-miterlimit:10;stroke-dasharray:none;stroke-opacity:1"
             id="path78"
             inkscape:connector-curvature="0" /><path
             d="m 633,241.88 -3.5,-7 3.5,1.75 3.5,-1.75 z"
             style="fill:#000000;fill-opacity:1;fill-rule:nonzero;stroke:none"
             id="path80"
             inkscape:connector-curvature="0" /><path
             d="m 633,241.88 -3.5,-7 3.5,1.75 3.5,-1.75 z"
             style="fill:none;stroke:#000000;stroke-width:1;stroke-linecap:butt;stroke-linejoin:miter;stroke-miterlimit:10;stroke-dasharray:none;stroke-opacity:1"
             id="path82"
             inkscape:connector-curvature="0" /><path
             d="m 570,289.5 h 126 c 0.59668,0 1.17065,0.11417 1.72198,0.34253 0.55127,0.22836 1.03791,0.5535 1.4599,0.97546 0.42194,0.42194 0.74708,0.90857 0.97547,1.4599 0.22833,0.5513 0.34259,1.12534 0.34265,1.72211 v 21 c -6e-5,0.59671 -0.11432,1.17072 -0.34265,1.72202 -0.22839,0.5513 -0.55353,1.03796 -0.97547,1.45993 -0.42199,0.42196 -0.90863,0.74713 -1.4599,0.97549 -0.55133,0.22836 -1.1253,0.34253 -1.72198,0.34256 H 570 c -0.5968,-3e-5 -1.17084,-0.1142 -1.72217,-0.34256 -0.55127,-0.22836 -1.0379,-0.55353 -1.45984,-0.97549 -0.42193,-0.42197 -0.74713,-0.90863 -0.97546,-1.45993 C 565.61414,316.17072 565.49994,315.59671 565.5,315 v -21 c -6e-5,-0.59677 0.11414,-1.17081 0.34253,-1.72211 0.22833,-0.55133 0.55353,-1.03796 0.97546,-1.4599 0.42194,-0.42196 0.90857,-0.7471 1.45984,-0.97546 C 568.82916,289.61417 569.4032,289.5 570,289.5 Z"
             style="fill:#ffffff;fill-opacity:1;fill-rule:nonzero;stroke:none"
             id="path84"
             inkscape:connector-curvature="0" /><path
             d="m 570,289.5 h 126 c 0.59668,0 1.17065,0.11417 1.72198,0.34253 0.55127,0.22836 1.03791,0.5535 1.4599,0.97546 0.42194,0.42194 0.74708,0.90857 0.97547,1.4599 0.22833,0.5513 0.34259,1.12534 0.34265,1.72211 v 21 c -6e-5,0.59671 -0.11432,1.17072 -0.34265,1.72202 -0.22839,0.5513 -0.55353,1.03796 -0.97547,1.45993 -0.42199,0.42196 -0.90863,0.74713 -1.4599,0.97549 -0.55133,0.22836 -1.1253,0.34253 -1.72198,0.34256 H 570 c -0.5968,-3e-5 -1.17084,-0.1142 -1.72217,-0.34256 -0.55127,-0.22836 -1.0379,-0.55353 -1.45984,-0.97549 -0.42193,-0.42197 -0.74713,-0.90863 -0.97546,-1.45993 C 565.61414,316.17072 565.49994,315.59671 565.5,315 v -21 c -6e-5,-0.59677 0.11414,-1.17081 0.34253,-1.72211 0.22833,-0.55133 0.55353,-1.03796 0.97546,-1.4599 0.42194,-0.42196 0.90857,-0.7471 1.45984,-0.97546 C 568.82916,289.61417 569.4032,289.5 570,289.5 Z"
             style="fill:none;stroke:#000000;stroke-width:1;stroke-linecap:butt;stroke-linejoin:miter;stroke-miterlimit:10;stroke-dasharray:none;stroke-opacity:1"
             id="path86"
             inkscape:connector-curvature="0" /></g><g
           id="g88"
           transform="matrix(2.995255,0,0,2.995255,1797.153,895.58124)"><text
             transform="translate(0.8125,11)"
             style="font-variant:normal;font-weight:normal;font-size:12px;font-family:Helvetica;-inkscape-font-specification:Helvetica;writing-mode:lr-tb;fill:#000000;fill-opacity:1;fill-rule:nonzero;stroke:none"
             id="text92"><tspan
               x="0 8.0039062 11.337891 18.011719 22.007812 28.681641 32.015625 36.011719 42.685547 48.685547 55.359375 58.025391 61.359375"
               y="0"
               sodipodi:role="line"
               id="tspan90">Store results</tspan></text>
</g><g
           id="g94"
           transform="matrix(2.995255,0,0,2.995255,1.4976275,1.4976275)"><path
             d="m 633,273 v 10.63"
             style="fill:none;stroke:#000000;stroke-width:1;stroke-linecap:butt;stroke-linejoin:miter;stroke-miterlimit:10;stroke-dasharray:none;stroke-opacity:1"
             id="path96"
             inkscape:connector-curvature="0" /><path
             d="m 633,288.88 -3.5,-7 3.5,1.75 3.5,-1.75 z"
             style="fill:#000000;fill-opacity:1;fill-rule:nonzero;stroke:none"
             id="path98"
             inkscape:connector-curvature="0" /><path
             d="m 633,288.88 -3.5,-7 3.5,1.75 3.5,-1.75 z"
             style="fill:none;stroke:#000000;stroke-width:1;stroke-linecap:butt;stroke-linejoin:miter;stroke-miterlimit:10;stroke-dasharray:none;stroke-opacity:1"
             id="path100"
             inkscape:connector-curvature="0" /><path
             d="m 613,354 h -55 c -6.66669,0 -10,-3.33334 -10,-10 V 221 c 0,-6.66667 1.94,-10 5.82001,-10 H 559.63"
             style="fill:none;stroke:#000000;stroke-width:1;stroke-linecap:butt;stroke-linejoin:miter;stroke-miterlimit:10;stroke-dasharray:none;stroke-opacity:1"
             id="path102"
             inkscape:connector-curvature="0" /><path
             d="m 564.88,211 -7,3.5 1.75,-3.5 -1.75,-3.5 z"
             style="fill:#000000;fill-opacity:1;fill-rule:nonzero;stroke:none"
             id="path104"
             inkscape:connector-curvature="0" /><path
             d="m 564.88,211 -7,3.5 1.75,-3.5 -1.75,-3.5 z"
             style="fill:none;stroke:#000000;stroke-width:1;stroke-linecap:butt;stroke-linejoin:miter;stroke-miterlimit:10;stroke-dasharray:none;stroke-opacity:1"
             id="path106"
             inkscape:connector-curvature="0" /><path
             d="M 633,336.5 653,354 633,371.5 613,354 Z"
             style="fill:#ffffff;fill-opacity:1;fill-rule:nonzero;stroke:none"
             id="path108"
             inkscape:connector-curvature="0" /><path
             d="M 633,336.5 653,354 633,371.5 613,354 Z"
             style="fill:none;stroke:#000000;stroke-width:1;stroke-linecap:butt;stroke-linejoin:miter;stroke-miterlimit:10;stroke-dasharray:none;stroke-opacity:1"
             id="path110"
             inkscape:connector-curvature="0" /><path
             d="m 633,320 v 10.63"
             style="fill:none;stroke:#000000;stroke-width:1;stroke-linecap:butt;stroke-linejoin:miter;stroke-miterlimit:10;stroke-dasharray:none;stroke-opacity:1"
             id="path112"
             inkscape:connector-curvature="0" /><path
             d="m 633,335.88 -3.5,-7 3.5,1.75 3.5,-1.75 z"
             style="fill:#000000;fill-opacity:1;fill-rule:nonzero;stroke:none"
             id="path114"
             inkscape:connector-curvature="0" /><path
             d="m 633,335.88 -3.5,-7 3.5,1.75 3.5,-1.75 z"
             style="fill:none;stroke:#000000;stroke-width:1;stroke-linecap:butt;stroke-linejoin:miter;stroke-miterlimit:10;stroke-dasharray:none;stroke-opacity:1"
             id="path116"
             inkscape:connector-curvature="0" /><path
             d="m 633,180 v 9.63"
             style="fill:none;stroke:#000000;stroke-width:1;stroke-linecap:butt;stroke-linejoin:miter;stroke-miterlimit:10;stroke-dasharray:none;stroke-opacity:1"
             id="path118"
             inkscape:connector-curvature="0" /><path
             d="m 633,194.88 -3.5,-7 3.5,1.75 3.5,-1.75 z"
             style="fill:#000000;fill-opacity:1;fill-rule:nonzero;stroke:none"
             id="path120"
             inkscape:connector-curvature="0" /><path
             d="m 633,194.88 -3.5,-7 3.5,1.75 3.5,-1.75 z"
             style="fill:none;stroke:#000000;stroke-width:1;stroke-linecap:butt;stroke-linejoin:miter;stroke-miterlimit:10;stroke-dasharray:none;stroke-opacity:1"
             id="path122"
             inkscape:connector-curvature="0" /><path
             d="m 570,150 h 126 c 0.59668,0 1.17065,0.11418 1.72198,0.34253 0.55127,0.22836 1.03791,0.55353 1.4599,0.97548 0.42194,0.42195 0.74708,0.90858 0.97547,1.45988 0.22833,0.55132 0.34259,1.12535 0.34265,1.72211 v 21 c -6e-5,0.59673 -0.11432,1.17075 -0.34265,1.72206 -0.22839,0.55132 -0.55353,1.03795 -0.97547,1.45992 -0.42199,0.42195 -0.90863,0.7471 -1.4599,0.97546 C 697.17065,179.88582 696.59668,180 696,180 H 570 c -0.5968,0 -1.17084,-0.11418 -1.72217,-0.34254 -0.55127,-0.22838 -1.0379,-0.55353 -1.45984,-0.97548 -0.42193,-0.42197 -0.74713,-0.9086 -0.97546,-1.45992 -0.22839,-0.55131 -0.34259,-1.12533 -0.34253,-1.72206 v -21 c -6e-5,-0.59676 0.11414,-1.17079 0.34253,-1.72211 0.22833,-0.5513 0.55353,-1.03793 0.97546,-1.45988 0.42194,-0.42195 0.90857,-0.74712 1.45984,-0.97548 C 568.82916,150.11418 569.4032,150 570,150 Z"
             style="fill:#ffffff;fill-opacity:1;fill-rule:nonzero;stroke:none"
             id="path124"
             inkscape:connector-curvature="0" /><path
             d="m 570,150 h 126 c 0.59668,0 1.17065,0.11418 1.72198,0.34253 0.55127,0.22836 1.03791,0.55353 1.4599,0.97548 0.42194,0.42195 0.74708,0.90858 0.97547,1.45988 0.22833,0.55132 0.34259,1.12535 0.34265,1.72211 v 21 c -6e-5,0.59673 -0.11432,1.17075 -0.34265,1.72206 -0.22839,0.55132 -0.55353,1.03795 -0.97547,1.45992 -0.42199,0.42195 -0.90863,0.7471 -1.4599,0.97546 C 697.17065,179.88582 696.59668,180 696,180 H 570 c -0.5968,0 -1.17084,-0.11418 -1.72217,-0.34254 -0.55127,-0.22838 -1.0379,-0.55353 -1.45984,-0.97548 -0.42193,-0.42197 -0.74713,-0.9086 -0.97546,-1.45992 -0.22839,-0.55131 -0.34259,-1.12533 -0.34253,-1.72206 v -21 c -6e-5,-0.59676 0.11414,-1.17079 0.34253,-1.72211 0.22833,-0.5513 0.55353,-1.03793 0.97546,-1.45988 0.42194,-0.42195 0.90857,-0.74712 1.45984,-0.97548 C 568.82916,150.11418 569.4032,150 570,150 Z"
             style="fill:none;stroke:#000000;stroke-width:1;stroke-linecap:butt;stroke-linejoin:miter;stroke-miterlimit:10;stroke-dasharray:none;stroke-opacity:1"
             id="path126"
             inkscape:connector-curvature="0" /></g><g
           id="g128"
           transform="matrix(2.995255,0,0,2.995255,1773.1909,476.24554)"><text
             transform="translate(0.140625,11)"
             style="font-variant:normal;font-weight:normal;font-size:12px;font-family:Helvetica;-inkscape-font-specification:Helvetica;writing-mode:lr-tb;fill:#000000;fill-opacity:1;fill-rule:nonzero;stroke:none"
             id="text132"><tspan
               x="0 8.6660156 15.339844 24.005859 30.679688 33.345703 40.019531 46.693359 53.367188 56.701172 64.03125 74.027344"
               y="0"
               sodipodi:role="line"
               id="tspan130">Download FMU</tspan></text>
</g><g
           id="g134"
           transform="matrix(2.995255,0,0,2.995255,1.4976275,1.4976275)"><path
             d="m 479,100.5 h 180 v 260 H 479 Z"
             style="fill:#ffffff;fill-opacity:1;fill-rule:nonzero;stroke:none"
             id="path136"
             inkscape:connector-curvature="0" /><path
             d="m 479,100.5 h 180 v 260 H 479 Z"
             style="fill:none;stroke:#000000;stroke-width:1;stroke-linecap:butt;stroke-linejoin:miter;stroke-miterlimit:10;stroke-dasharray:none;stroke-opacity:1"
             id="path138"
             inkscape:connector-curvature="0" /><path
             d="m 479,100.5 h 180 v 20 H 479 Z"
             style="fill:#f5f5f5;fill-opacity:1;fill-rule:nonzero;stroke:none"
             id="path140"
             inkscape:connector-curvature="0" /><path
             d="m 479,100.5 h 180 v 20 H 479 Z"
             style="fill:none;stroke:#666666;stroke-width:1;stroke-linecap:butt;stroke-linejoin:miter;stroke-miterlimit:10;stroke-dasharray:none;stroke-opacity:1"
             id="path142"
             inkscape:connector-curvature="0" /></g><g
           id="g144"
           transform="matrix(2.995255,0,0,2.995255,1479.656,314.50177)"><text
             transform="translate(0,11)"
             style="font-variant:normal;font-weight:normal;font-size:12px;font-family:Helvetica;-inkscape-font-specification:Helvetica;writing-mode:lr-tb;fill:#333333;fill-opacity:1;fill-rule:nonzero;stroke:none"
             id="text148"><tspan
               x="0 8.0039062 10.669922 20.666016 27.339844 30.005859 36.679688 40.013672 42.679688 49.353516 56.027344 59.361328 67.365234 73.365234 80.039062 86.039062 92.712891 96.046875 102.7207 106.7168 110.05078 118.05469 124.72852 131.40234 138.07617 141.41016 144.74414"
               y="0"
               sodipodi:role="line"
               id="tspan146">Simulation Executor Agent 2</tspan></text>
</g><g
           id="g150"
           transform="matrix(2.995255,0,0,2.995255,1.4976275,1.4976275)"><path
             d="m 511,175.5 h 126 c 0.59674,0 1.17072,0.11418 1.72205,0.34253 0.55127,0.22835 1.0379,0.55351 1.4599,0.97548 0.42193,0.42195 0.74707,0.90857 0.9754,1.45988 0.22839,0.55132 0.34259,1.12535 0.34265,1.72211 v 21 c -6e-5,0.59673 -0.11426,1.17073 -0.34265,1.72205 -0.22833,0.55131 -0.55347,1.03794 -0.9754,1.45991 -0.422,0.42195 -0.90863,0.7471 -1.4599,0.97546 C 638.17072,205.3858 637.59674,205.49998 637,205.5 H 511 c -0.59677,-2e-5 -1.17081,-0.1142 -1.72214,-0.34258 -0.55133,-0.22836 -1.03796,-0.55351 -1.4599,-0.97546 -0.42196,-0.42197 -0.74713,-0.9086 -0.97549,-1.45991 C 506.61411,202.17073 506.49997,201.59673 506.5,201 v -21 c -3e-5,-0.59676 0.11411,-1.17079 0.34247,-1.72211 0.22836,-0.55131 0.55353,-1.03793 0.97549,-1.45988 0.42194,-0.42197 0.90857,-0.74713 1.45987,-0.97548 C 509.82919,175.61418 510.40323,175.5 511,175.5 Z"
             style="fill:#ffffff;fill-opacity:1;fill-rule:nonzero;stroke:none"
             id="path152"
             inkscape:connector-curvature="0" /><path
             d="m 511,175.5 h 126 c 0.59674,0 1.17072,0.11418 1.72205,0.34253 0.55127,0.22835 1.0379,0.55351 1.4599,0.97548 0.42193,0.42195 0.74707,0.90857 0.9754,1.45988 0.22839,0.55132 0.34259,1.12535 0.34265,1.72211 v 21 c -6e-5,0.59673 -0.11426,1.17073 -0.34265,1.72205 -0.22833,0.55131 -0.55347,1.03794 -0.9754,1.45991 -0.422,0.42195 -0.90863,0.7471 -1.4599,0.97546 C 638.17072,205.3858 637.59674,205.49998 637,205.5 H 511 c -0.59677,-2e-5 -1.17081,-0.1142 -1.72214,-0.34258 -0.55133,-0.22836 -1.03796,-0.55351 -1.4599,-0.97546 -0.42196,-0.42197 -0.74713,-0.9086 -0.97549,-1.45991 C 506.61411,202.17073 506.49997,201.59673 506.5,201 v -21 c -3e-5,-0.59676 0.11411,-1.17079 0.34247,-1.72211 0.22836,-0.55131 0.55353,-1.03793 0.97549,-1.45988 0.42194,-0.42197 0.90857,-0.74713 1.45987,-0.97548 C 509.82919,175.61418 510.40323,175.5 511,175.5 Z"
             style="fill:none;stroke:#000000;stroke-width:1;stroke-linecap:butt;stroke-linejoin:miter;stroke-miterlimit:10;stroke-dasharray:none;stroke-opacity:1"
             id="path154"
             inkscape:connector-curvature="0" /></g><g
           id="g156"
           transform="matrix(2.995255,0,0,2.995255,1560.5278,554.12219)"><text
             transform="translate(0.46875,11)"
             style="font-variant:normal;font-weight:normal;font-size:12px;font-family:Helvetica;-inkscape-font-specification:Helvetica;writing-mode:lr-tb;fill:#000000;fill-opacity:1;fill-rule:nonzero;stroke:none"
             id="text160"><tspan
               x="0 9.3339844 16.007812 19.341797 22.675781 28.675781 31.341797 41.337891 48.011719 50.677734 57.351562 60.685547 63.351562 70.025391 76.699219 80.033203 86.033203 92.707031 99.380859 102.71484"
               y="0"
               sodipodi:role="line"
               id="tspan158">Get simulation conf.</tspan></text>
</g><g
           id="g162"
           transform="matrix(2.995255,0,0,2.995255,1.4976275,1.4976275)"><path
             d="m 511,222.5 h 126 c 0.59674,0 1.17072,0.11417 1.72205,0.34251 0.55127,0.22837 1.0379,0.55353 1.4599,0.97548 0.42193,0.42195 0.74707,0.90859 0.9754,1.4599 0.22839,0.55132 0.34259,1.12535 0.34265,1.72211 v 21 c -6e-5,0.59671 -0.11426,1.17072 -0.34265,1.72203 -0.22833,0.55132 -0.55347,1.03796 -0.9754,1.45993 -0.422,0.42195 -0.90863,0.7471 -1.4599,0.97546 -0.55133,0.22837 -1.12531,0.34256 -1.72205,0.34258 H 511 c -0.59677,-2e-5 -1.17081,-0.11421 -1.72214,-0.34258 -0.55133,-0.22836 -1.03796,-0.55351 -1.4599,-0.97546 -0.42196,-0.42197 -0.74713,-0.9086 -0.97549,-1.45991 C 506.61411,249.17073 506.49997,248.59671 506.5,248 v -21 c -3e-5,-0.59676 0.11411,-1.17079 0.34247,-1.72211 0.22836,-0.55131 0.55353,-1.03795 0.97549,-1.4599 0.42194,-0.42195 0.90857,-0.74711 1.45987,-0.97548 C 509.82919,222.61417 510.40323,222.5 511,222.5 Z"
             style="fill:#ffffff;fill-opacity:1;fill-rule:nonzero;stroke:none"
             id="path164"
             inkscape:connector-curvature="0" /><path
             d="m 511,222.5 h 126 c 0.59674,0 1.17072,0.11417 1.72205,0.34251 0.55127,0.22837 1.0379,0.55353 1.4599,0.97548 0.42193,0.42195 0.74707,0.90859 0.9754,1.4599 0.22839,0.55132 0.34259,1.12535 0.34265,1.72211 v 21 c -6e-5,0.59671 -0.11426,1.17072 -0.34265,1.72203 -0.22833,0.55132 -0.55347,1.03796 -0.9754,1.45993 -0.422,0.42195 -0.90863,0.7471 -1.4599,0.97546 -0.55133,0.22837 -1.12531,0.34256 -1.72205,0.34258 H 511 c -0.59677,-2e-5 -1.17081,-0.11421 -1.72214,-0.34258 -0.55133,-0.22836 -1.03796,-0.55351 -1.4599,-0.97546 -0.42196,-0.42197 -0.74713,-0.9086 -0.97549,-1.45991 C 506.61411,249.17073 506.49997,248.59671 506.5,248 v -21 c -3e-5,-0.59676 0.11411,-1.17079 0.34247,-1.72211 0.22836,-0.55131 0.55353,-1.03795 0.97549,-1.4599 0.42194,-0.42195 0.90857,-0.74711 1.45987,-0.97548 C 509.82919,222.61417 510.40323,222.5 511,222.5 Z"
             style="fill:none;stroke:#000000;stroke-width:1;stroke-linecap:butt;stroke-linejoin:miter;stroke-miterlimit:10;stroke-dasharray:none;stroke-opacity:1"
             id="path166"
             inkscape:connector-curvature="0" /></g><g
           id="g168"
           transform="matrix(2.995255,0,0,2.995255,1569.5137,694.89917)"><text
             transform="translate(0.140625,11)"
             style="font-variant:normal;font-weight:normal;font-size:12px;font-family:Helvetica;-inkscape-font-specification:Helvetica;writing-mode:lr-tb;fill:#000000;fill-opacity:1;fill-rule:nonzero;stroke:none"
             id="text172"><tspan
               x="0 8.0039062 14.003906 20.677734 26.677734 33.351562 36.685547 43.359375 46.693359 52.693359 55.359375 65.355469 72.029297 74.695312 81.369141 84.703125 87.369141 94.042969"
               y="0"
               sodipodi:role="line"
               id="tspan170">Execute simulation</tspan></text>
</g><g
           id="g174"
           transform="matrix(2.995255,0,0,2.995255,1.4976275,1.4976275)"><path
             d="m 574,206 v 10.63"
             style="fill:none;stroke:#000000;stroke-width:1;stroke-linecap:butt;stroke-linejoin:miter;stroke-miterlimit:10;stroke-dasharray:none;stroke-opacity:1"
             id="path176"
             inkscape:connector-curvature="0" /><path
             d="m 574,221.88 -3.5,-7 3.5,1.75 3.5,-1.75 z"
             style="fill:#000000;fill-opacity:1;fill-rule:nonzero;stroke:none"
             id="path178"
             inkscape:connector-curvature="0" /><path
             d="m 574,221.88 -3.5,-7 3.5,1.75 3.5,-1.75 z"
             style="fill:none;stroke:#000000;stroke-width:1;stroke-linecap:butt;stroke-linejoin:miter;stroke-miterlimit:10;stroke-dasharray:none;stroke-opacity:1"
             id="path180"
             inkscape:connector-curvature="0" /><path
             d="m 511,269.5 h 126 c 0.59674,0 1.17072,0.11417 1.72205,0.3425 0.55127,0.22836 1.0379,0.55353 1.4599,0.97549 0.42193,0.42194 0.74707,0.90857 0.9754,1.4599 0.22839,0.5513 0.34259,1.12534 0.34265,1.72211 v 21 c -6e-5,0.59671 -0.11426,1.17075 -0.34265,1.72205 -0.22833,0.5513 -0.55347,1.03793 -0.9754,1.4599 -0.422,0.42193 -0.90863,0.7471 -1.4599,0.97546 -0.55133,0.22836 -1.12531,0.34256 -1.72205,0.34259 H 511 c -0.59677,-3e-5 -1.17081,-0.11423 -1.72214,-0.34259 -0.55133,-0.22836 -1.03796,-0.55353 -1.4599,-0.97546 -0.42196,-0.42197 -0.74713,-0.9086 -0.97549,-1.4599 -0.22836,-0.5513 -0.3425,-1.12534 -0.34247,-1.72205 v -21 c -3e-5,-0.59677 0.11411,-1.17081 0.34247,-1.72211 0.22836,-0.55133 0.55353,-1.03796 0.97549,-1.4599 0.42194,-0.42196 0.90857,-0.74713 1.45987,-0.97549 0.55136,-0.22833 1.1254,-0.3425 1.72217,-0.3425 z"
             style="fill:#ffffff;fill-opacity:1;fill-rule:nonzero;stroke:none"
             id="path182"
             inkscape:connector-curvature="0" /><path
             d="m 511,269.5 h 126 c 0.59674,0 1.17072,0.11417 1.72205,0.3425 0.55127,0.22836 1.0379,0.55353 1.4599,0.97549 0.42193,0.42194 0.74707,0.90857 0.9754,1.4599 0.22839,0.5513 0.34259,1.12534 0.34265,1.72211 v 21 c -6e-5,0.59671 -0.11426,1.17075 -0.34265,1.72205 -0.22833,0.5513 -0.55347,1.03793 -0.9754,1.4599 -0.422,0.42193 -0.90863,0.7471 -1.4599,0.97546 -0.55133,0.22836 -1.12531,0.34256 -1.72205,0.34259 H 511 c -0.59677,-3e-5 -1.17081,-0.11423 -1.72214,-0.34259 -0.55133,-0.22836 -1.03796,-0.55353 -1.4599,-0.97546 -0.42196,-0.42197 -0.74713,-0.9086 -0.97549,-1.4599 -0.22836,-0.5513 -0.3425,-1.12534 -0.34247,-1.72205 v -21 c -3e-5,-0.59677 0.11411,-1.17081 0.34247,-1.72211 0.22836,-0.55133 0.55353,-1.03796 0.97549,-1.4599 0.42194,-0.42196 0.90857,-0.74713 1.45987,-0.97549 0.55136,-0.22833 1.1254,-0.3425 1.72217,-0.3425 z"
             style="fill:none;stroke:#000000;stroke-width:1;stroke-linecap:butt;stroke-linejoin:miter;stroke-miterlimit:10;stroke-dasharray:none;stroke-opacity:1"
             id="path184"
             inkscape:connector-curvature="0" /></g><g
           id="g186"
           transform="matrix(2.995255,0,0,2.995255,1620.433,835.67615)"><text
             transform="translate(0.8125,11)"
             style="font-variant:normal;font-weight:normal;font-size:12px;font-family:Helvetica;-inkscape-font-specification:Helvetica;writing-mode:lr-tb;fill:#000000;fill-opacity:1;fill-rule:nonzero;stroke:none"
             id="text190"><tspan
               x="0 8.0039062 11.337891 18.011719 22.007812 28.681641 32.015625 36.011719 42.685547 48.685547 55.359375 58.025391 61.359375"
               y="0"
               sodipodi:role="line"
               id="tspan188">Store results</tspan></text>
</g><g
           id="g192"
           transform="matrix(2.995255,0,0,2.995255,1.4976275,1.4976275)"><path
             d="m 574,253 v 10.63"
             style="fill:none;stroke:#000000;stroke-width:1;stroke-linecap:butt;stroke-linejoin:miter;stroke-miterlimit:10;stroke-dasharray:none;stroke-opacity:1"
             id="path194"
             inkscape:connector-curvature="0" /><path
             d="m 574,268.88 -3.5,-7 3.5,1.75 3.5,-1.75 z"
             style="fill:#000000;fill-opacity:1;fill-rule:nonzero;stroke:none"
             id="path196"
             inkscape:connector-curvature="0" /><path
             d="m 574,268.88 -3.5,-7 3.5,1.75 3.5,-1.75 z"
             style="fill:none;stroke:#000000;stroke-width:1;stroke-linecap:butt;stroke-linejoin:miter;stroke-miterlimit:10;stroke-dasharray:none;stroke-opacity:1"
             id="path198"
             inkscape:connector-curvature="0" /><path
             d="m 554,334 h -55 c -6.66666,0 -10,-3.33334 -10,-10 V 201 c 0,-6.66667 1.94,-10 5.82001,-10 H 500.63"
             style="fill:none;stroke:#000000;stroke-width:1;stroke-linecap:butt;stroke-linejoin:miter;stroke-miterlimit:10;stroke-dasharray:none;stroke-opacity:1"
             id="path200"
             inkscape:connector-curvature="0" /><path
             d="m 505.88,191 -7,3.5 1.75,-3.5 -1.75,-3.5 z"
             style="fill:#000000;fill-opacity:1;fill-rule:nonzero;stroke:none"
             id="path202"
             inkscape:connector-curvature="0" /><path
             d="m 505.88,191 -7,3.5 1.75,-3.5 -1.75,-3.5 z"
             style="fill:none;stroke:#000000;stroke-width:1;stroke-linecap:butt;stroke-linejoin:miter;stroke-miterlimit:10;stroke-dasharray:none;stroke-opacity:1"
             id="path204"
             inkscape:connector-curvature="0" /><path
             d="M 574,316.5 594,334 574,351.5 554,334 Z"
             style="fill:#ffffff;fill-opacity:1;fill-rule:nonzero;stroke:none"
             id="path206"
             inkscape:connector-curvature="0" /><path
             d="M 574,316.5 594,334 574,351.5 554,334 Z"
             style="fill:none;stroke:#000000;stroke-width:1;stroke-linecap:butt;stroke-linejoin:miter;stroke-miterlimit:10;stroke-dasharray:none;stroke-opacity:1"
             id="path208"
             inkscape:connector-curvature="0" /><path
             d="m 574,300 v 10.63"
             style="fill:none;stroke:#000000;stroke-width:1;stroke-linecap:butt;stroke-linejoin:miter;stroke-miterlimit:10;stroke-dasharray:none;stroke-opacity:1"
             id="path210"
             inkscape:connector-curvature="0" /><path
             d="m 574,315.88 -3.5,-7 3.5,1.75 3.5,-1.75 z"
             style="fill:#000000;fill-opacity:1;fill-rule:nonzero;stroke:none"
             id="path212"
             inkscape:connector-curvature="0" /><path
             d="m 574,315.88 -3.5,-7 3.5,1.75 3.5,-1.75 z"
             style="fill:none;stroke:#000000;stroke-width:1;stroke-linecap:butt;stroke-linejoin:miter;stroke-miterlimit:10;stroke-dasharray:none;stroke-opacity:1"
             id="path214"
             inkscape:connector-curvature="0" /><path
             d="m 574,160 v 9.63"
             style="fill:none;stroke:#000000;stroke-width:1;stroke-linecap:butt;stroke-linejoin:miter;stroke-miterlimit:10;stroke-dasharray:none;stroke-opacity:1"
             id="path216"
             inkscape:connector-curvature="0" /><path
             d="m 574,174.88 -3.5,-7 3.5,1.75 3.5,-1.75 z"
             style="fill:#000000;fill-opacity:1;fill-rule:nonzero;stroke:none"
             id="path218"
             inkscape:connector-curvature="0" /><path
             d="m 574,174.88 -3.5,-7 3.5,1.75 3.5,-1.75 z"
             style="fill:none;stroke:#000000;stroke-width:1;stroke-linecap:butt;stroke-linejoin:miter;stroke-miterlimit:10;stroke-dasharray:none;stroke-opacity:1"
             id="path220"
             inkscape:connector-curvature="0" /><path
             d="m 511,130 h 126 c 0.59674,0 1.17072,0.11418 1.72205,0.34253 0.55127,0.22836 1.0379,0.55353 1.4599,0.97548 0.42193,0.42195 0.74707,0.90858 0.9754,1.4599 0.22839,0.55131 0.34259,1.12535 0.34265,1.72209 v 21 c -6e-5,0.59672 -0.11426,1.17075 -0.34265,1.72206 -0.22833,0.55132 -0.55347,1.03795 -0.9754,1.45992 -0.422,0.42195 -0.90863,0.7471 -1.4599,0.97545 C 638.17072,159.8858 637.59674,159.99998 637,160 H 511 c -0.59677,-2e-5 -1.17081,-0.1142 -1.72214,-0.34257 -0.55133,-0.22835 -1.03796,-0.5535 -1.4599,-0.97545 -0.42196,-0.42197 -0.74713,-0.9086 -0.97549,-1.45992 -0.22836,-0.55131 -0.3425,-1.12534 -0.34247,-1.72206 v -21 c -3e-5,-0.59674 0.11411,-1.17078 0.34247,-1.72209 0.22836,-0.55132 0.55353,-1.03795 0.97549,-1.4599 0.42194,-0.42195 0.90857,-0.74712 1.45987,-0.97548 C 509.82919,130.11418 510.40323,130 511,130 Z"
             style="fill:#ffffff;fill-opacity:1;fill-rule:nonzero;stroke:none"
             id="path222"
             inkscape:connector-curvature="0" /><path
             d="m 511,130 h 126 c 0.59674,0 1.17072,0.11418 1.72205,0.34253 0.55127,0.22836 1.0379,0.55353 1.4599,0.97548 0.42193,0.42195 0.74707,0.90858 0.9754,1.4599 0.22839,0.55131 0.34259,1.12535 0.34265,1.72209 v 21 c -6e-5,0.59672 -0.11426,1.17075 -0.34265,1.72206 -0.22833,0.55132 -0.55347,1.03795 -0.9754,1.45992 -0.422,0.42195 -0.90863,0.7471 -1.4599,0.97545 C 638.17072,159.8858 637.59674,159.99998 637,160 H 511 c -0.59677,-2e-5 -1.17081,-0.1142 -1.72214,-0.34257 -0.55133,-0.22835 -1.03796,-0.5535 -1.4599,-0.97545 -0.42196,-0.42197 -0.74713,-0.9086 -0.97549,-1.45992 -0.22836,-0.55131 -0.3425,-1.12534 -0.34247,-1.72206 v -21 c -3e-5,-0.59674 0.11411,-1.17078 0.34247,-1.72209 0.22836,-0.55132 0.55353,-1.03795 0.97549,-1.4599 0.42194,-0.42195 0.90857,-0.74712 1.45987,-0.97548 C 509.82919,130.11418 510.40323,130 511,130 Z"
             style="fill:none;stroke:#000000;stroke-width:1;stroke-linecap:butt;stroke-linejoin:miter;stroke-miterlimit:10;stroke-dasharray:none;stroke-opacity:1"
             id="path224"
             inkscape:connector-curvature="0" /></g><g
           id="g226"
           transform="matrix(2.995255,0,0,2.995255,1596.471,416.34045)"><text
             transform="translate(0.140625,11)"
             style="font-variant:normal;font-weight:normal;font-size:12px;font-family:Helvetica;-inkscape-font-specification:Helvetica;writing-mode:lr-tb;fill:#000000;fill-opacity:1;fill-rule:nonzero;stroke:none"
             id="text230"><tspan
               x="0 8.6660156 15.339844 24.005859 30.679688 33.345703 40.019531 46.693359 53.367188 56.701172 64.03125 74.027344"
               y="0"
               sodipodi:role="line"
               id="tspan228">Download FMU</tspan></text>
</g><g
           id="g232"
           transform="matrix(2.995255,0,0,2.995255,1.4976275,1.4976275)"><path
             d="m 181,225 h 23.63"
             style="fill:none;stroke:#000000;stroke-width:1;stroke-linecap:butt;stroke-linejoin:miter;stroke-miterlimit:10;stroke-dasharray:none;stroke-opacity:1"
             id="path234"
             inkscape:connector-curvature="0" /><path
             d="m 209.88,225 -7,3.5 1.75,-3.5 -1.75,-3.5 z"
             style="fill:#000000;fill-opacity:1;fill-rule:nonzero;stroke:none"
             id="path236"
             inkscape:connector-curvature="0" /><path
             d="m 209.88,225 -7,3.5 1.75,-3.5 -1.75,-3.5 z"
             style="fill:none;stroke:#000000;stroke-width:1;stroke-linecap:butt;stroke-linejoin:miter;stroke-miterlimit:10;stroke-dasharray:none;stroke-opacity:1"
             id="path238"
             inkscape:connector-curvature="0" /><path
             d="M 11,140 H 181 V 310 H 11 Z"
             style="fill:#ffffff;fill-opacity:1;fill-rule:nonzero;stroke:none"
             id="path240"
             inkscape:connector-curvature="0" /><path
             d="M 11,140 H 181 V 310 H 11 Z"
             style="fill:none;stroke:#000000;stroke-width:1;stroke-linecap:butt;stroke-linejoin:miter;stroke-miterlimit:10;stroke-dasharray:none;stroke-opacity:1"
             id="path242"
             inkscape:connector-curvature="0" /><path
             d="m 96,250 v 13.63"
             style="fill:none;stroke:#000000;stroke-width:1;stroke-linecap:butt;stroke-linejoin:miter;stroke-miterlimit:10;stroke-dasharray:none;stroke-opacity:1"
             id="path244"
             inkscape:connector-curvature="0" /><path
             d="m 96,268.88 -3.5,-7 3.5,1.75 3.5,-1.75 z"
             style="fill:#000000;fill-opacity:1;fill-rule:nonzero;stroke:none"
             id="path246"
             inkscape:connector-curvature="0" /><path
             d="m 96,268.88 -3.5,-7 3.5,1.75 3.5,-1.75 z"
             style="fill:none;stroke:#000000;stroke-width:1;stroke-linecap:butt;stroke-linejoin:miter;stroke-miterlimit:10;stroke-dasharray:none;stroke-opacity:1"
             id="path248"
             inkscape:connector-curvature="0" /><path
             d="m 33,220 h 126 c 0.59672,0 1.17075,0.11418 1.72206,0.34253 0.5513,0.22835 1.03793,0.55351 1.4599,0.97546 0.42195,0.42195 0.74712,0.90859 0.97547,1.4599 0.22837,0.55132 0.34255,1.12535 0.34257,1.72211 v 21 c -2e-5,0.59673 -0.1142,1.17073 -0.34257,1.72203 -0.22835,0.55132 -0.55352,1.03795 -0.97547,1.45992 -0.42197,0.42195 -0.9086,0.7471 -1.4599,0.97547 C 160.17075,249.88577 159.59672,249.99997 159,250 H 33 c -0.596741,-3e-5 -1.170767,-0.11423 -1.72208,-0.34259 -0.551314,-0.22836 -1.037947,-0.55351 -1.459902,-0.97546 -0.421959,-0.42197 -0.747118,-0.9086 -0.975479,-1.45992 C 28.614178,246.67073 28.499998,246.09673 28.5,245.5 v -21 c -2e-6,-0.59676 0.114178,-1.17079 0.342539,-1.72211 0.228361,-0.55131 0.55352,-1.03795 0.975479,-1.4599 0.421955,-0.42195 0.90859,-0.74711 1.459904,-0.97546 C 31.829233,220.11418 32.403259,220 33,220 Z"
             style="fill:#ffffff;fill-opacity:1;fill-rule:nonzero;stroke:none"
             id="path250"
             inkscape:connector-curvature="0" /><path
             d="m 33,220 h 126 c 0.59672,0 1.17075,0.11418 1.72206,0.34253 0.5513,0.22835 1.03793,0.55351 1.4599,0.97546 0.42195,0.42195 0.74712,0.90859 0.97547,1.4599 0.22837,0.55132 0.34255,1.12535 0.34257,1.72211 v 21 c -2e-5,0.59673 -0.1142,1.17073 -0.34257,1.72203 -0.22835,0.55132 -0.55352,1.03795 -0.97547,1.45992 -0.42197,0.42195 -0.9086,0.7471 -1.4599,0.97547 C 160.17075,249.88577 159.59672,249.99997 159,250 H 33 c -0.596741,-3e-5 -1.170767,-0.11423 -1.72208,-0.34259 -0.551314,-0.22836 -1.037947,-0.55351 -1.459902,-0.97546 -0.421959,-0.42197 -0.747118,-0.9086 -0.975479,-1.45992 C 28.614178,246.67073 28.499998,246.09673 28.5,245.5 v -21 c -2e-6,-0.59676 0.114178,-1.17079 0.342539,-1.72211 0.228361,-0.55131 0.55352,-1.03795 0.975479,-1.4599 0.421955,-0.42195 0.90859,-0.74711 1.459904,-0.97546 C 31.829233,220.11418 32.403259,220 33,220 Z"
             style="fill:none;stroke:#000000;stroke-width:1;stroke-linecap:butt;stroke-linejoin:miter;stroke-miterlimit:10;stroke-dasharray:none;stroke-opacity:1"
             id="path252"
             inkscape:connector-curvature="0" /></g><g
           id="g254"
           transform="matrix(2.995255,0,0,2.995255,92.852905,664.94659)"><text
             transform="translate(19.8125,11)"
             style="font-variant:normal;font-weight:normal;font-size:12px;font-family:Helvetica;-inkscape-font-specification:Helvetica;writing-mode:lr-tb;fill:#000000;fill-opacity:1;fill-rule:nonzero;stroke:none"
             id="text258"><tspan
               x="0 8.6660156 15.339844 22.013672 28.013672 34.6875 41.361328 45.357422 52.03125 55.365234 61.365234 68.039062 74.712891 78.046875 82.042969 88.716797"
               y="0"
               sodipodi:role="line"
               id="tspan256">Conﬁgure central</tspan></text>
<text
             transform="translate(40.8125,25)"
             style="font-variant:normal;font-weight:normal;font-size:12px;font-family:Helvetica;-inkscape-font-specification:Helvetica;writing-mode:lr-tb;fill:#000000;fill-opacity:1;fill-rule:nonzero;stroke:none"
             id="text262"><tspan
               x="0 6.6738281 13.347656 16.681641 23.355469 30.029297 36.703125 42.703125"
               y="0"
               sodipodi:role="line"
               id="tspan260">database</tspan></text>
</g><g
           id="g264"
           transform="matrix(2.995255,0,0,2.995255,1.4976275,1.4976275)"><path
             d="m 96,200 v 13.63"
             style="fill:none;stroke:#000000;stroke-width:1;stroke-linecap:butt;stroke-linejoin:miter;stroke-miterlimit:10;stroke-dasharray:none;stroke-opacity:1"
             id="path266"
             inkscape:connector-curvature="0" /><path
             d="m 96,218.88 -3.5,-7 3.5,1.75 3.5,-1.75 z"
             style="fill:#000000;fill-opacity:1;fill-rule:nonzero;stroke:none"
             id="path268"
             inkscape:connector-curvature="0" /><path
             d="m 96,218.88 -3.5,-7 3.5,1.75 3.5,-1.75 z"
             style="fill:none;stroke:#000000;stroke-width:1;stroke-linecap:butt;stroke-linejoin:miter;stroke-miterlimit:10;stroke-dasharray:none;stroke-opacity:1"
             id="path270"
             inkscape:connector-curvature="0" /><path
             d="m 33,170 h 126 c 0.59672,0 1.17075,0.11418 1.72206,0.34253 0.5513,0.22835 1.03793,0.55351 1.4599,0.97548 0.42195,0.42195 0.74712,0.90858 0.97547,1.4599 0.22837,0.55131 0.34255,1.12533 0.34257,1.72209 v 21 c -2e-5,0.59673 -0.1142,1.17073 -0.34257,1.72205 -0.22835,0.55131 -0.55352,1.03794 -0.97547,1.45991 -0.42197,0.42195 -0.9086,0.7471 -1.4599,0.97548 C 160.17075,199.88579 159.59672,199.99998 159,200 H 33 c -0.596741,-2e-5 -1.170767,-0.11421 -1.72208,-0.34259 -0.551314,-0.22835 -1.037947,-0.5535 -1.459902,-0.97545 -0.421959,-0.42197 -0.747118,-0.9086 -0.975479,-1.45991 C 28.614178,196.67073 28.499998,196.09673 28.5,195.5 v -21 c -2e-6,-0.59676 0.114178,-1.17078 0.342539,-1.72209 0.228361,-0.55132 0.55352,-1.03795 0.975479,-1.4599 0.421955,-0.42197 0.90859,-0.74713 1.459904,-0.97548 C 31.829233,170.11418 32.403259,170 33,170 Z"
             style="fill:#ffffff;fill-opacity:1;fill-rule:nonzero;stroke:none"
             id="path272"
             inkscape:connector-curvature="0" /><path
             d="m 33,170 h 126 c 0.59672,0 1.17075,0.11418 1.72206,0.34253 0.5513,0.22835 1.03793,0.55351 1.4599,0.97548 0.42195,0.42195 0.74712,0.90858 0.97547,1.4599 0.22837,0.55131 0.34255,1.12533 0.34257,1.72209 v 21 c -2e-5,0.59673 -0.1142,1.17073 -0.34257,1.72205 -0.22835,0.55131 -0.55352,1.03794 -0.97547,1.45991 -0.42197,0.42195 -0.9086,0.7471 -1.4599,0.97548 C 160.17075,199.88579 159.59672,199.99998 159,200 H 33 c -0.596741,-2e-5 -1.170767,-0.11421 -1.72208,-0.34259 -0.551314,-0.22835 -1.037947,-0.5535 -1.459902,-0.97545 -0.421959,-0.42197 -0.747118,-0.9086 -0.975479,-1.45991 C 28.614178,196.67073 28.499998,196.09673 28.5,195.5 v -21 c -2e-6,-0.59676 0.114178,-1.17078 0.342539,-1.72209 0.228361,-0.55132 0.55352,-1.03795 0.975479,-1.4599 0.421955,-0.42197 0.90859,-0.74713 1.459904,-0.97548 C 31.829233,170.11418 32.403259,170 33,170 Z"
             style="fill:none;stroke:#000000;stroke-width:1;stroke-linecap:butt;stroke-linejoin:miter;stroke-miterlimit:10;stroke-dasharray:none;stroke-opacity:1"
             id="path274"
             inkscape:connector-curvature="0" /></g><g
           id="g276"
           transform="matrix(2.995255,0,0,2.995255,92.852905,515.18384)"><text
             transform="translate(25.484375,11)"
             style="font-variant:normal;font-weight:normal;font-size:12px;font-family:Helvetica;-inkscape-font-specification:Helvetica;writing-mode:lr-tb;fill:#000000;fill-opacity:1;fill-rule:nonzero;stroke:none"
             id="text280"><tspan
               x="0 8.6660156 15.339844 24.005859 30.679688 33.345703 40.019531 46.693359 53.367188 56.701172 63.375 69.375 76.048828"
               y="0"
               sodipodi:role="line"
               id="tspan278">Download user</tspan></text>
<text
             transform="translate(20.140625,25)"
             style="font-variant:normal;font-weight:normal;font-size:12px;font-family:Helvetica;-inkscape-font-specification:Helvetica;writing-mode:lr-tb;fill:#000000;fill-opacity:1;fill-rule:nonzero;stroke:none"
             id="text284"><tspan
               x="0 6 12.673828 19.347656 25.347656 28.013672 34.013672 40.013672 46.6875 50.021484 52.6875 59.361328 66.035156 69.369141 75.369141 78.035156 84.708984"
               y="0"
               sodipodi:role="line"
               id="tspan282">speciﬁcation ﬁles</tspan></text>
</g><g
           id="g286"
           transform="matrix(2.995255,0,0,2.995255,1.4976275,1.4976275)"><path
             d="m 96,120 v 10 c 0,6.66667 0,6.66667 0,0 v -5 c 0,-3.33334 0,-2.72667 0,1.82 v 6.81"
             style="fill:none;stroke:#000000;stroke-width:1;stroke-linecap:butt;stroke-linejoin:miter;stroke-miterlimit:10;stroke-dasharray:none;stroke-opacity:1"
             id="path288"
             inkscape:connector-curvature="0" /><path
             d="m 96,138.88 -3.5,-7 3.5,1.75 3.5,-1.75 z"
             style="fill:#000000;fill-opacity:1;fill-rule:nonzero;stroke:none"
             id="path290"
             inkscape:connector-curvature="0" /><path
             d="m 96,138.88 -3.5,-7 3.5,1.75 3.5,-1.75 z"
             style="fill:none;stroke:#000000;stroke-width:1;stroke-linecap:butt;stroke-linejoin:miter;stroke-miterlimit:10;stroke-dasharray:none;stroke-opacity:1"
             id="path292"
             inkscape:connector-curvature="0" /><path
             d="m 33.5,90 h 125 v 30 h -125 z"
             style="fill:#ffffff;fill-opacity:1;fill-rule:nonzero;stroke:none"
             id="path294"
             inkscape:connector-curvature="0" /><path
             d="m 33.5,90 h 125 v 30 h -125 z"
             style="fill:none;stroke:#000000;stroke-width:1;stroke-linecap:butt;stroke-linejoin:miter;stroke-miterlimit:10;stroke-dasharray:none;stroke-opacity:1"
             id="path296"
             inkscape:connector-curvature="0" /></g><g
           id="g298"
           transform="matrix(2.995255,0,0,2.995255,104.83392,296.53024)"><text
             transform="translate(0,11)"
             style="font-variant:normal;font-weight:normal;font-size:12px;font-family:Helvetica;-inkscape-font-specification:Helvetica;writing-mode:lr-tb;fill:#000000;fill-opacity:1;fill-rule:nonzero;stroke:none"
             id="text302"><tspan
               x="0 8.6660156 14.666016 21.339844 25.335938 28.669922 34.669922 41.34375 48.017578 54.017578 60.691406 67.365234 71.361328 78.035156 81.369141 84.035156 90.708984 97.382812 100.7168 106.7168 109.38281 116.05664"
               y="0"
               sodipodi:role="line"
               id="tspan300">User conﬁguration ﬁles</tspan></text>
</g><g
           id="g304"
           transform="matrix(2.995255,0,0,2.995255,1.4976275,1.4976275)"><path
             d="m 322.5,225.83 22.13,0.13001"
             style="fill:none;stroke:#000000;stroke-width:1;stroke-linecap:butt;stroke-linejoin:miter;stroke-miterlimit:10;stroke-dasharray:none;stroke-opacity:1"
             id="path306"
             inkscape:connector-curvature="0" /><path
             d="M 349.88,225.99001 342.85999,229.45 344.63,225.96001 342.89999,222.45 Z"
             style="fill:#000000;fill-opacity:1;fill-rule:nonzero;stroke:none"
             id="path308"
             inkscape:connector-curvature="0" /><path
             d="M 349.88,225.99001 342.85999,229.45 344.63,225.96001 342.89999,222.45 Z"
             style="fill:none;stroke:#000000;stroke-width:1;stroke-linecap:butt;stroke-linejoin:miter;stroke-miterlimit:10;stroke-dasharray:none;stroke-opacity:1"
             id="path310"
             inkscape:connector-curvature="0" /><path
             d="m 212.5,208 h 110 v 35 h -110 z"
             style="fill:#f5f5f5;fill-opacity:1;fill-rule:nonzero;stroke:none"
             id="path312"
             inkscape:connector-curvature="0" /><path
             d="m 212.5,208 h 110 v 35 h -110 z"
             style="fill:none;stroke:#666666;stroke-width:1;stroke-linecap:butt;stroke-linejoin:miter;stroke-miterlimit:10;stroke-dasharray:none;stroke-opacity:1"
             id="path314"
             inkscape:connector-curvature="0" /></g><g
           id="g316"
           transform="matrix(2.995255,0,0,2.995255,727.84698,637.98932)"><text
             transform="translate(3.6875,11)"
             style="font-variant:normal;font-weight:normal;font-size:12px;font-family:Helvetica;-inkscape-font-specification:Helvetica;writing-mode:lr-tb;fill:#333333;fill-opacity:1;fill-rule:nonzero;stroke:none"
             id="text320"><tspan
               x="0 8.6660156 15.339844 22.013672 25.347656 29.34375 36.017578 38.683594"
               y="0"
               sodipodi:role="line"
               id="tspan318">Central </tspan></text>
<text
             transform="translate(0,25)"
             style="font-variant:normal;font-weight:normal;font-size:12px;font-family:Helvetica;-inkscape-font-specification:Helvetica;writing-mode:lr-tb;fill:#333333;fill-opacity:1;fill-rule:nonzero;stroke:none"
             id="text324"><tspan
               x="0 6.6738281 13.347656 16.681641 23.355469 30.029297 36.703125 42.703125"
               y="0"
               sodipodi:role="line"
               id="tspan322">database</tspan></text>
</g><g
           id="g326"
           transform="matrix(2.995255,0,0,2.995255,1.4976275,1.4976275)"><path
             d="M 355,93 V 65 h 156 v 9.629997"
             style="fill:none;stroke:#000000;stroke-width:1;stroke-linecap:butt;stroke-linejoin:miter;stroke-miterlimit:10;stroke-dasharray:none;stroke-opacity:1"
             id="path328"
             inkscape:connector-curvature="0" /><path
             d="m 511,79.879997 -3.5,-7 3.5,1.75 3.5,-1.75 z"
             style="fill:#000000;fill-opacity:1;fill-rule:nonzero;stroke:none"
             id="path330"
             inkscape:connector-curvature="0" /><path
             d="m 511,79.879997 -3.5,-7 3.5,1.75 3.5,-1.75 z"
             style="fill:none;stroke:#000000;stroke-width:1;stroke-linecap:butt;stroke-linejoin:miter;stroke-miterlimit:10;stroke-dasharray:none;stroke-opacity:1"
             id="path332"
             inkscape:connector-curvature="0" /><path
             d="M 355,94 V 55 h 272 v 38.629997"
             style="fill:none;stroke:#000000;stroke-width:1;stroke-linecap:butt;stroke-linejoin:miter;stroke-miterlimit:10;stroke-dasharray:none;stroke-opacity:1"
             id="path334"
             inkscape:connector-curvature="0" /><path
             d="m 627,98.879997 -3.5,-7 3.5,1.75 3.5,-1.75 z"
             style="fill:#000000;fill-opacity:1;fill-rule:nonzero;stroke:none"
             id="path336"
             inkscape:connector-curvature="0" /><path
             d="m 627,98.879997 -3.5,-7 3.5,1.75 3.5,-1.75 z"
             style="fill:none;stroke:#000000;stroke-width:1;stroke-linecap:butt;stroke-linejoin:miter;stroke-miterlimit:10;stroke-dasharray:none;stroke-opacity:1"
             id="path338"
             inkscape:connector-curvature="0" /><path
             d="M 355,93 V 45 h 339 v 69.63"
             style="fill:none;stroke:#000000;stroke-width:1;stroke-linecap:butt;stroke-linejoin:miter;stroke-miterlimit:10;stroke-dasharray:none;stroke-opacity:1"
             id="path340"
             inkscape:connector-curvature="0" /><path
             d="m 694,119.88 -3.5,-7 3.5,1.75 3.5,-1.75 z"
             style="fill:#000000;fill-opacity:1;fill-rule:nonzero;stroke:none"
             id="path342"
             inkscape:connector-curvature="0" /><path
             d="m 694,119.88 -3.5,-7 3.5,1.75 3.5,-1.75 z"
             style="fill:none;stroke:#000000;stroke-width:1;stroke-linecap:butt;stroke-linejoin:miter;stroke-miterlimit:10;stroke-dasharray:none;stroke-opacity:1"
             id="path344"
             inkscape:connector-curvature="0" /><path
             d="m 351,93.5 h 10 v 253 h -10 z"
             style="fill:#000000;fill-opacity:1;fill-rule:nonzero;stroke:none"
             id="path346"
             inkscape:connector-curvature="0" /><path
             d="m 351,93.5 h 10 v 253 h -10 z"
             style="fill:none;stroke:#000000;stroke-width:1;stroke-linecap:butt;stroke-linejoin:miter;stroke-miterlimit:10;stroke-dasharray:none;stroke-opacity:1"
             id="path348"
             inkscape:connector-curvature="0" /><path
             d="m 11,140 h 170 v 20 H 11 Z"
             style="fill:#f5f5f5;fill-opacity:1;fill-rule:nonzero;stroke:none"
             id="path350"
             inkscape:connector-curvature="0" /><path
             d="m 11,140 h 170 v 20 H 11 Z"
             style="fill:none;stroke:#666666;stroke-width:1;stroke-linecap:butt;stroke-linejoin:miter;stroke-miterlimit:10;stroke-dasharray:none;stroke-opacity:1"
             id="path352"
             inkscape:connector-curvature="0" /></g><g
           id="g354"
           transform="matrix(2.995255,0,0,2.995255,65.895607,431.31671)"><text
             transform="translate(0,11)"
             style="font-variant:normal;font-weight:normal;font-size:12px;font-family:Helvetica;-inkscape-font-specification:Helvetica;writing-mode:lr-tb;fill:#333333;fill-opacity:1;fill-rule:nonzero;stroke:none"
             id="text358"><tspan
               x="0 8.0039062 10.669922 20.666016 27.339844 30.005859 36.679688 40.013672 42.679688 49.353516 56.027344 59.361328 68.695312 75.369141 82.042969 88.716797 92.712891 99.386719 102.7207 109.39453 113.39062 116.72461 124.72852 131.40234 138.07617 144.75"
               y="0"
               sodipodi:role="line"
               id="tspan356">Simulation Generator Agent</tspan></text>
</g><g
           id="g360"
           transform="matrix(2.995255,0,0,2.995255,1.4976275,1.4976275)"><path
             d="m 33,270 h 126 c 0.59672,0 1.17075,0.11417 1.72206,0.3425 0.5513,0.22836 1.03793,0.55353 1.4599,0.97549 0.42195,0.42194 0.74712,0.90857 0.97547,1.4599 0.22837,0.5513 0.34255,1.12534 0.34257,1.72211 v 21 c -2e-5,0.59671 -0.1142,1.17075 -0.34257,1.72205 -0.22835,0.5513 -0.55352,1.03793 -0.97547,1.4599 -0.42197,0.42196 -0.9086,0.7471 -1.4599,0.97546 C 160.17075,299.88577 159.59672,299.99997 159,300 H 33 c -0.596741,-3e-5 -1.170767,-0.11423 -1.72208,-0.34259 -0.551314,-0.22836 -1.037947,-0.5535 -1.459902,-0.97546 -0.421959,-0.42197 -0.747118,-0.9086 -0.975479,-1.4599 C 28.614178,296.67075 28.499998,296.09671 28.5,295.5 v -21 c -2e-6,-0.59677 0.114178,-1.17081 0.342539,-1.72211 0.228361,-0.55133 0.55352,-1.03796 0.975479,-1.4599 0.421955,-0.42196 0.90859,-0.74713 1.459904,-0.97549 C 31.829233,270.11417 32.403259,270 33,270 Z"
             style="fill:#ffffff;fill-opacity:1;fill-rule:nonzero;stroke:none"
             id="path362"
             inkscape:connector-curvature="0" /><path
             d="m 33,270 h 126 c 0.59672,0 1.17075,0.11417 1.72206,0.3425 0.5513,0.22836 1.03793,0.55353 1.4599,0.97549 0.42195,0.42194 0.74712,0.90857 0.97547,1.4599 0.22837,0.5513 0.34255,1.12534 0.34257,1.72211 v 21 c -2e-5,0.59671 -0.1142,1.17075 -0.34257,1.72205 -0.22835,0.5513 -0.55352,1.03793 -0.97547,1.4599 -0.42197,0.42196 -0.9086,0.7471 -1.4599,0.97546 C 160.17075,299.88577 159.59672,299.99997 159,300 H 33 c -0.596741,-3e-5 -1.170767,-0.11423 -1.72208,-0.34259 -0.551314,-0.22836 -1.037947,-0.5535 -1.459902,-0.97546 -0.421959,-0.42197 -0.747118,-0.9086 -0.975479,-1.4599 C 28.614178,296.67075 28.499998,296.09671 28.5,295.5 v -21 c -2e-6,-0.59677 0.114178,-1.17081 0.342539,-1.72211 0.228361,-0.55133 0.55352,-1.03796 0.975479,-1.4599 0.421955,-0.42196 0.90859,-0.74713 1.459904,-0.97549 C 31.829233,270.11417 32.403259,270 33,270 Z"
             style="fill:none;stroke:#000000;stroke-width:1;stroke-linecap:butt;stroke-linejoin:miter;stroke-miterlimit:10;stroke-dasharray:none;stroke-opacity:1"
             id="path364"
             inkscape:connector-curvature="0" /></g><g
           id="g366"
           transform="matrix(2.995255,0,0,2.995255,92.852905,814.70935)"><text
             transform="translate(39.484375,11)"
             style="font-variant:normal;font-weight:normal;font-size:12px;font-family:Helvetica;-inkscape-font-specification:Helvetica;writing-mode:lr-tb;fill:#000000;fill-opacity:1;fill-rule:nonzero;stroke:none"
             id="text370"><tspan
               x="0 8.6660156 15.339844 22.013672 28.013672 34.6875 41.361328 45.357422"
               y="0"
               sodipodi:role="line"
               id="tspan368">Conﬁgure</tspan></text>
<text
             transform="translate(4.796875,25)"
             style="font-variant:normal;font-weight:normal;font-size:12px;font-family:Helvetica;-inkscape-font-specification:Helvetica;writing-mode:lr-tb;fill:#000000;fill-opacity:1;fill-rule:nonzero;stroke:none"
             id="text374"><tspan
               x="0 6.6738281 12.673828 19.347656 26.021484 30.017578 32.683594 42.679688 49.353516 56.027344 59.361328 66.035156 69.369141 72.035156 78.708984 85.382812 88.716797 94.716797 101.39062 104.72461 108.05859 114.73242"
               y="0"
               sodipodi:role="line"
               id="tspan372">experimentation set up</tspan></text>
</g><g
           id="g376"
           transform="matrix(2.995255,0,0,2.995255,1.4976275,1.4976275)"><path
             d="m 421,80.5 h 180 v 260 H 421 Z"
             style="fill:#ffffff;fill-opacity:1;fill-rule:nonzero;stroke:none"
             id="path378"
             inkscape:connector-curvature="0" /><path
             d="m 421,80.5 h 180 v 260 H 421 Z"
             style="fill:none;stroke:#000000;stroke-width:1;stroke-linecap:butt;stroke-linejoin:miter;stroke-miterlimit:10;stroke-dasharray:none;stroke-opacity:1"
             id="path380"
             inkscape:connector-curvature="0" /><path
             d="m 421,80.5 h 180 v 20 H 421 Z"
             style="fill:#f5f5f5;fill-opacity:1;fill-rule:nonzero;stroke:none"
             id="path382"
             inkscape:connector-curvature="0" /><path
             d="m 421,80.5 h 180 v 20 H 421 Z"
             style="fill:none;stroke:#666666;stroke-width:1;stroke-linecap:butt;stroke-linejoin:miter;stroke-miterlimit:10;stroke-dasharray:none;stroke-opacity:1"
             id="path384"
             inkscape:connector-curvature="0" /></g><g
           id="g386"
           transform="matrix(2.995255,0,0,2.995255,1305.9312,254.59668)"><text
             transform="translate(0,11)"
             style="font-variant:normal;font-weight:normal;font-size:12px;font-family:Helvetica;-inkscape-font-specification:Helvetica;writing-mode:lr-tb;fill:#333333;fill-opacity:1;fill-rule:nonzero;stroke:none"
             id="text390"><tspan
               x="0 8.0039062 10.669922 20.666016 27.339844 30.005859 36.679688 40.013672 42.679688 49.353516 56.027344 59.361328 67.365234 73.365234 80.039062 86.039062 92.712891 96.046875 102.7207 106.7168 110.05078 118.05469 124.72852 131.40234 138.07617 141.41016 144.74414"
               y="0"
               sodipodi:role="line"
               id="tspan388">Simulation Executor Agent 1</tspan></text>
</g><g
           id="g392"
           transform="matrix(2.995255,0,0,2.995255,1.4976275,1.4976275)"><path
             d="m 453,155.5 h 126 c 0.59674,0 1.17072,0.11418 1.72198,0.34253 0.55134,0.22835 1.03803,0.55351 1.45997,0.97548 0.42193,0.42195 0.74707,0.90858 0.97546,1.4599 0.22833,0.55131 0.34253,1.12533 0.34259,1.72209 v 21 c -6e-5,0.59673 -0.11426,1.17075 -0.34259,1.72205 -0.22839,0.55131 -0.55353,1.03794 -0.97546,1.45991 -0.42194,0.42195 -0.90863,0.7471 -1.45997,0.97546 -0.55126,0.22837 -1.12524,0.34256 -1.72198,0.34258 H 453 c -0.59677,-2e-5 -1.17081,-0.11421 -1.72214,-0.34258 -0.5513,-0.22836 -1.03793,-0.55351 -1.45987,-0.97546 -0.42196,-0.42197 -0.74716,-0.9086 -0.97552,-1.45991 -0.22833,-0.5513 -0.3425,-1.12532 -0.34247,-1.72205 v -21 c -3e-5,-0.59676 0.11414,-1.17078 0.3425,-1.72209 0.22836,-0.55132 0.55353,-1.03795 0.97549,-1.4599 0.42194,-0.42197 0.90857,-0.74713 1.45987,-0.97548 C 451.82919,155.61418 452.40323,155.5 453,155.5 Z"
             style="fill:#ffffff;fill-opacity:1;fill-rule:nonzero;stroke:none"
             id="path394"
             inkscape:connector-curvature="0" /><path
             d="m 453,155.5 h 126 c 0.59674,0 1.17072,0.11418 1.72198,0.34253 0.55134,0.22835 1.03803,0.55351 1.45997,0.97548 0.42193,0.42195 0.74707,0.90858 0.97546,1.4599 0.22833,0.55131 0.34253,1.12533 0.34259,1.72209 v 21 c -6e-5,0.59673 -0.11426,1.17075 -0.34259,1.72205 -0.22839,0.55131 -0.55353,1.03794 -0.97546,1.45991 -0.42194,0.42195 -0.90863,0.7471 -1.45997,0.97546 -0.55126,0.22837 -1.12524,0.34256 -1.72198,0.34258 H 453 c -0.59677,-2e-5 -1.17081,-0.11421 -1.72214,-0.34258 -0.5513,-0.22836 -1.03793,-0.55351 -1.45987,-0.97546 -0.42196,-0.42197 -0.74716,-0.9086 -0.97552,-1.45991 -0.22833,-0.5513 -0.3425,-1.12532 -0.34247,-1.72205 v -21 c -3e-5,-0.59676 0.11414,-1.17078 0.3425,-1.72209 0.22836,-0.55132 0.55353,-1.03795 0.97549,-1.4599 0.42194,-0.42197 0.90857,-0.74713 1.45987,-0.97548 C 451.82919,155.61418 452.40323,155.5 453,155.5 Z"
             style="fill:none;stroke:#000000;stroke-width:1;stroke-linecap:butt;stroke-linejoin:miter;stroke-miterlimit:10;stroke-dasharray:none;stroke-opacity:1"
             id="path396"
             inkscape:connector-curvature="0" /></g><g
           id="g398"
           transform="matrix(2.995255,0,0,2.995255,1386.8031,494.21707)"><text
             transform="translate(0.46875,11)"
             style="font-variant:normal;font-weight:normal;font-size:12px;font-family:Helvetica;-inkscape-font-specification:Helvetica;writing-mode:lr-tb;fill:#000000;fill-opacity:1;fill-rule:nonzero;stroke:none"
             id="text402"><tspan
               x="0 9.3339844 16.007812 19.341797 22.675781 28.675781 31.341797 41.337891 48.011719 50.677734 57.351562 60.685547 63.351562 70.025391 76.699219 80.033203 86.033203 92.707031 99.380859 102.71484"
               y="0"
               sodipodi:role="line"
               id="tspan400">Get simulation conf.</tspan></text>
</g><g
           id="g404"
           transform="matrix(2.995255,0,0,2.995255,1.4976275,1.4976275)"><path
             d="m 453,202.5 h 126 c 0.59674,0 1.17072,0.11418 1.72198,0.34253 0.55134,0.22836 1.03803,0.55353 1.45997,0.97548 0.42193,0.42195 0.74707,0.90858 0.97546,1.4599 0.22833,0.55131 0.34253,1.12533 0.34259,1.72209 v 21 c -6e-5,0.59673 -0.11426,1.17073 -0.34259,1.72205 -0.22839,0.55131 -0.55353,1.03796 -0.97546,1.45993 -0.42194,0.42195 -0.90863,0.7471 -1.45997,0.97548 C 580.17072,232.3858 579.59674,232.49998 579,232.5 H 453 c -0.59677,-2e-5 -1.17081,-0.1142 -1.72214,-0.34254 -0.5513,-0.22838 -1.03793,-0.55353 -1.45987,-0.97548 -0.42196,-0.42197 -0.74716,-0.90862 -0.97552,-1.45993 C 448.61414,229.17073 448.49997,228.59673 448.5,228 v -21 c -3e-5,-0.59676 0.11414,-1.17078 0.3425,-1.72209 0.22836,-0.55132 0.55353,-1.03795 0.97549,-1.4599 0.42194,-0.42195 0.90857,-0.74712 1.45987,-0.97548 C 451.82919,202.61418 452.40323,202.5 453,202.5 Z"
             style="fill:#ffffff;fill-opacity:1;fill-rule:nonzero;stroke:none"
             id="path406"
             inkscape:connector-curvature="0" /><path
             d="m 453,202.5 h 126 c 0.59674,0 1.17072,0.11418 1.72198,0.34253 0.55134,0.22836 1.03803,0.55353 1.45997,0.97548 0.42193,0.42195 0.74707,0.90858 0.97546,1.4599 0.22833,0.55131 0.34253,1.12533 0.34259,1.72209 v 21 c -6e-5,0.59673 -0.11426,1.17073 -0.34259,1.72205 -0.22839,0.55131 -0.55353,1.03796 -0.97546,1.45993 -0.42194,0.42195 -0.90863,0.7471 -1.45997,0.97548 C 580.17072,232.3858 579.59674,232.49998 579,232.5 H 453 c -0.59677,-2e-5 -1.17081,-0.1142 -1.72214,-0.34254 -0.5513,-0.22838 -1.03793,-0.55353 -1.45987,-0.97548 -0.42196,-0.42197 -0.74716,-0.90862 -0.97552,-1.45993 C 448.61414,229.17073 448.49997,228.59673 448.5,228 v -21 c -3e-5,-0.59676 0.11414,-1.17078 0.3425,-1.72209 0.22836,-0.55132 0.55353,-1.03795 0.97549,-1.4599 0.42194,-0.42195 0.90857,-0.74712 1.45987,-0.97548 C 451.82919,202.61418 452.40323,202.5 453,202.5 Z"
             style="fill:none;stroke:#000000;stroke-width:1;stroke-linecap:butt;stroke-linejoin:miter;stroke-miterlimit:10;stroke-dasharray:none;stroke-opacity:1"
             id="path408"
             inkscape:connector-curvature="0" /></g><g
           id="g410"
           transform="matrix(2.995255,0,0,2.995255,1395.7888,634.99408)"><text
             transform="translate(0.140625,11)"
             style="font-variant:normal;font-weight:normal;font-size:12px;font-family:Helvetica;-inkscape-font-specification:Helvetica;writing-mode:lr-tb;fill:#000000;fill-opacity:1;fill-rule:nonzero;stroke:none"
             id="text414"><tspan
               x="0 8.0039062 14.003906 20.677734 26.677734 33.351562 36.685547 43.359375 46.693359 52.693359 55.359375 65.355469 72.029297 74.695312 81.369141 84.703125 87.369141 94.042969"
               y="0"
               sodipodi:role="line"
               id="tspan412">Execute simulation</tspan></text>
</g><g
           id="g416"
           transform="matrix(2.995255,0,0,2.995255,1.4976275,1.4976275)"><path
             d="m 516,186 v 10.63"
             style="fill:none;stroke:#000000;stroke-width:1;stroke-linecap:butt;stroke-linejoin:miter;stroke-miterlimit:10;stroke-dasharray:none;stroke-opacity:1"
             id="path418"
             inkscape:connector-curvature="0" /><path
             d="m 516,201.88 -3.5,-7 3.5,1.75 3.5,-1.75 z"
             style="fill:#000000;fill-opacity:1;fill-rule:nonzero;stroke:none"
             id="path420"
             inkscape:connector-curvature="0" /><path
             d="m 516,201.88 -3.5,-7 3.5,1.75 3.5,-1.75 z"
             style="fill:none;stroke:#000000;stroke-width:1;stroke-linecap:butt;stroke-linejoin:miter;stroke-miterlimit:10;stroke-dasharray:none;stroke-opacity:1"
             id="path422"
             inkscape:connector-curvature="0" /><path
             d="m 453,249.5 h 126 c 0.59674,0 1.17072,0.11417 1.72198,0.34251 0.55134,0.22837 1.03803,0.55353 1.45997,0.9755 0.42193,0.42195 0.74707,0.90858 0.97546,1.45988 0.22833,0.55132 0.34253,1.12535 0.34259,1.72211 v 21 c -6e-5,0.59671 -0.11426,1.17075 -0.34259,1.72205 -0.22839,0.55133 -0.55353,1.03796 -0.97546,1.45993 -0.42194,0.42193 -0.90863,0.7471 -1.45997,0.97546 C 580.17072,279.3858 579.59674,279.5 579,279.5 H 453 c -0.59677,0 -1.17081,-0.1142 -1.72214,-0.34256 -0.5513,-0.22836 -1.03793,-0.55353 -1.45987,-0.97546 -0.42196,-0.42197 -0.74716,-0.9086 -0.97552,-1.45993 -0.22833,-0.5513 -0.3425,-1.12534 -0.34247,-1.72205 v -21 c -3e-5,-0.59676 0.11414,-1.17079 0.3425,-1.72211 0.22836,-0.5513 0.55353,-1.03793 0.97549,-1.45988 0.42194,-0.42197 0.90857,-0.74713 1.45987,-0.97548 C 451.82919,249.61418 452.40323,249.5 453,249.5 Z"
             style="fill:#ffffff;fill-opacity:1;fill-rule:nonzero;stroke:none"
             id="path424"
             inkscape:connector-curvature="0" /><path
             d="m 453,249.5 h 126 c 0.59674,0 1.17072,0.11417 1.72198,0.34251 0.55134,0.22837 1.03803,0.55353 1.45997,0.9755 0.42193,0.42195 0.74707,0.90858 0.97546,1.45988 0.22833,0.55132 0.34253,1.12535 0.34259,1.72211 v 21 c -6e-5,0.59671 -0.11426,1.17075 -0.34259,1.72205 -0.22839,0.55133 -0.55353,1.03796 -0.97546,1.45993 -0.42194,0.42193 -0.90863,0.7471 -1.45997,0.97546 C 580.17072,279.3858 579.59674,279.5 579,279.5 H 453 c -0.59677,0 -1.17081,-0.1142 -1.72214,-0.34256 -0.5513,-0.22836 -1.03793,-0.55353 -1.45987,-0.97546 -0.42196,-0.42197 -0.74716,-0.9086 -0.97552,-1.45993 -0.22833,-0.5513 -0.3425,-1.12534 -0.34247,-1.72205 v -21 c -3e-5,-0.59676 0.11414,-1.17079 0.3425,-1.72211 0.22836,-0.5513 0.55353,-1.03793 0.97549,-1.45988 0.42194,-0.42197 0.90857,-0.74713 1.45987,-0.97548 C 451.82919,249.61418 452.40323,249.5 453,249.5 Z"
             style="fill:none;stroke:#000000;stroke-width:1;stroke-linecap:butt;stroke-linejoin:miter;stroke-miterlimit:10;stroke-dasharray:none;stroke-opacity:1"
             id="path426"
             inkscape:connector-curvature="0" /></g><g
           id="g428"
           transform="matrix(2.995255,0,0,2.995255,1446.7081,775.77106)"><text
             transform="translate(0.8125,11)"
             style="font-variant:normal;font-weight:normal;font-size:12px;font-family:Helvetica;-inkscape-font-specification:Helvetica;writing-mode:lr-tb;fill:#000000;fill-opacity:1;fill-rule:nonzero;stroke:none"
             id="text432"><tspan
               x="0 8.0039062 11.337891 18.011719 22.007812 28.681641 32.015625 36.011719 42.685547 48.685547 55.359375 58.025391 61.359375"
               y="0"
               sodipodi:role="line"
               id="tspan430">Store results</tspan></text>
</g><g
           id="g434"
           transform="matrix(2.995255,0,0,2.995255,1.4976275,1.4976275)"><path
             d="m 516,233 v 10.63"
             style="fill:none;stroke:#000000;stroke-width:1;stroke-linecap:butt;stroke-linejoin:miter;stroke-miterlimit:10;stroke-dasharray:none;stroke-opacity:1"
             id="path436"
             inkscape:connector-curvature="0" /><path
             d="m 516,248.88 -3.5,-7 3.5,1.75 3.5,-1.75 z"
             style="fill:#000000;fill-opacity:1;fill-rule:nonzero;stroke:none"
             id="path438"
             inkscape:connector-curvature="0" /><path
             d="m 516,248.88 -3.5,-7 3.5,1.75 3.5,-1.75 z"
             style="fill:none;stroke:#000000;stroke-width:1;stroke-linecap:butt;stroke-linejoin:miter;stroke-miterlimit:10;stroke-dasharray:none;stroke-opacity:1"
             id="path440"
             inkscape:connector-curvature="0" /><path
             d="m 489,314 h -48 c -6.66666,0 -10,-3.33334 -10,-10 V 181 c 0,-6.66667 1.94,-10 5.82001,-10 H 442.63"
             style="fill:none;stroke:#000000;stroke-width:1;stroke-linecap:butt;stroke-linejoin:miter;stroke-miterlimit:10;stroke-dasharray:none;stroke-opacity:1"
             id="path442"
             inkscape:connector-curvature="0" /><path
             d="m 447.88,171 -7,3.5 1.75,-3.5 -1.75,-3.5 z"
             style="fill:#000000;fill-opacity:1;fill-rule:nonzero;stroke:none"
             id="path444"
             inkscape:connector-curvature="0" /><path
             d="m 447.88,171 -7,3.5 1.75,-3.5 -1.75,-3.5 z"
             style="fill:none;stroke:#000000;stroke-width:1;stroke-linecap:butt;stroke-linejoin:miter;stroke-miterlimit:10;stroke-dasharray:none;stroke-opacity:1"
             id="path446"
             inkscape:connector-curvature="0" /><path
             d="M 516,296.5 543.5,314 516,331.5 488.5,314 Z"
             style="fill:#ffffff;fill-opacity:1;fill-rule:nonzero;stroke:none"
             id="path448"
             inkscape:connector-curvature="0" /><path
             d="M 516,296.5 543.5,314 516,331.5 488.5,314 Z"
             style="fill:none;stroke:#000000;stroke-width:1;stroke-linecap:butt;stroke-linejoin:miter;stroke-miterlimit:10;stroke-dasharray:none;stroke-opacity:1"
             id="path450"
             inkscape:connector-curvature="0" /></g><g
           id="g452"
           transform="matrix(2.995255,0,0,2.995255,1497.6274,922.53851)"><text
             transform="translate(0.484375,11)"
             style="font-variant:normal;font-weight:normal;font-size:12px;font-family:Helvetica;-inkscape-font-specification:Helvetica;writing-mode:lr-tb;fill:#000000;fill-opacity:1;fill-rule:nonzero;stroke:none"
             id="text456"><tspan
               x="0 7.3300781 9.9960938 16.669922 19.335938 25.335938"
               y="0"
               sodipodi:role="line"
               id="tspan454">Finish</tspan></text>
</g><g
           id="g458"
           transform="matrix(2.995255,0,0,2.995255,1.4976275,1.4976275)"><path
             d="m 516,280 v 10.63"
             style="fill:none;stroke:#000000;stroke-width:1;stroke-linecap:butt;stroke-linejoin:miter;stroke-miterlimit:10;stroke-dasharray:none;stroke-opacity:1"
             id="path460"
             inkscape:connector-curvature="0" /><path
             d="m 516,295.88 -3.5,-7 3.5,1.75 3.5,-1.75 z"
             style="fill:#000000;fill-opacity:1;fill-rule:nonzero;stroke:none"
             id="path462"
             inkscape:connector-curvature="0" /><path
             d="m 516,295.88 -3.5,-7 3.5,1.75 3.5,-1.75 z"
             style="fill:none;stroke:#000000;stroke-width:1;stroke-linecap:butt;stroke-linejoin:miter;stroke-miterlimit:10;stroke-dasharray:none;stroke-opacity:1"
             id="path464"
             inkscape:connector-curvature="0" /><path
             d="m 516,140 v 9.63"
             style="fill:none;stroke:#000000;stroke-width:1;stroke-linecap:butt;stroke-linejoin:miter;stroke-miterlimit:10;stroke-dasharray:none;stroke-opacity:1"
             id="path466"
             inkscape:connector-curvature="0" /><path
             d="m 516,154.88 -3.5,-7 3.5,1.75 3.5,-1.75 z"
             style="fill:#000000;fill-opacity:1;fill-rule:nonzero;stroke:none"
             id="path468"
             inkscape:connector-curvature="0" /><path
             d="m 516,154.88 -3.5,-7 3.5,1.75 3.5,-1.75 z"
             style="fill:none;stroke:#000000;stroke-width:1;stroke-linecap:butt;stroke-linejoin:miter;stroke-miterlimit:10;stroke-dasharray:none;stroke-opacity:1"
             id="path470"
             inkscape:connector-curvature="0" /><path
             d="m 453,110 h 126 c 0.59674,0 1.17072,0.11418 1.72198,0.34254 0.55134,0.22835 1.03803,0.55351 1.45997,0.97547 0.42193,0.42195 0.74707,0.90858 0.97546,1.4599 0.22833,0.55131 0.34253,1.12534 0.34259,1.72209 v 21 c -6e-5,0.59672 -0.11426,1.17075 -0.34259,1.72205 -0.22839,0.55131 -0.55353,1.03796 -0.97546,1.45993 -0.42194,0.42195 -0.90863,0.7471 -1.45997,0.97546 C 580.17072,139.8858 579.59674,139.99998 579,140 H 453 c -0.59677,-2e-5 -1.17081,-0.1142 -1.72214,-0.34256 -0.5513,-0.22836 -1.03793,-0.55351 -1.45987,-0.97546 -0.42196,-0.42197 -0.74716,-0.90862 -0.97552,-1.45993 -0.22833,-0.5513 -0.3425,-1.12533 -0.34247,-1.72205 v -21 c -3e-5,-0.59675 0.11414,-1.17078 0.3425,-1.72209 0.22836,-0.55132 0.55353,-1.03795 0.97549,-1.4599 0.42194,-0.42196 0.90857,-0.74712 1.45987,-0.97547 C 451.82919,110.11418 452.40323,110 453,110 Z"
             style="fill:#ffffff;fill-opacity:1;fill-rule:nonzero;stroke:none"
             id="path472"
             inkscape:connector-curvature="0" /><path
             d="m 453,110 h 126 c 0.59674,0 1.17072,0.11418 1.72198,0.34254 0.55134,0.22835 1.03803,0.55351 1.45997,0.97547 0.42193,0.42195 0.74707,0.90858 0.97546,1.4599 0.22833,0.55131 0.34253,1.12534 0.34259,1.72209 v 21 c -6e-5,0.59672 -0.11426,1.17075 -0.34259,1.72205 -0.22839,0.55131 -0.55353,1.03796 -0.97546,1.45993 -0.42194,0.42195 -0.90863,0.7471 -1.45997,0.97546 C 580.17072,139.8858 579.59674,139.99998 579,140 H 453 c -0.59677,-2e-5 -1.17081,-0.1142 -1.72214,-0.34256 -0.5513,-0.22836 -1.03793,-0.55351 -1.45987,-0.97546 -0.42196,-0.42197 -0.74716,-0.90862 -0.97552,-1.45993 -0.22833,-0.5513 -0.3425,-1.12533 -0.34247,-1.72205 v -21 c -3e-5,-0.59675 0.11414,-1.17078 0.3425,-1.72209 0.22836,-0.55132 0.55353,-1.03795 0.97549,-1.4599 0.42194,-0.42196 0.90857,-0.74712 1.45987,-0.97547 C 451.82919,110.11418 452.40323,110 453,110 Z"
             style="fill:none;stroke:#000000;stroke-width:1;stroke-linecap:butt;stroke-linejoin:miter;stroke-miterlimit:10;stroke-dasharray:none;stroke-opacity:1"
             id="path474"
             inkscape:connector-curvature="0" /></g><g
           id="g476"
           transform="matrix(2.995255,0,0,2.995255,1422.7461,356.43533)"><text
             transform="translate(0.140625,11)"
             style="font-variant:normal;font-weight:normal;font-size:12px;font-family:Helvetica;-inkscape-font-specification:Helvetica;writing-mode:lr-tb;fill:#000000;fill-opacity:1;fill-rule:nonzero;stroke:none"
             id="text480"><tspan
               x="0 8.6660156 15.339844 24.005859 30.679688 33.345703 40.019531 46.693359 53.367188 56.701172 64.03125 74.027344"
               y="0"
               sodipodi:role="line"
               id="tspan478">Download FMU</tspan></text>
</g><g
           id="g482"
           transform="matrix(2.995255,0,0,2.995255,1401.7793,901.57178)"><text
             transform="translate(0.234375,11)"
             style="font-variant:normal;font-weight:normal;font-size:9px;font-family:Helvetica;-inkscape-font-specification:Helvetica;writing-mode:lr-tb;fill:#000000;fill-opacity:1;fill-rule:nonzero;stroke:none"
             id="text486"><tspan
               x="0 6.4995117"
               y="0"
               sodipodi:role="line"
               id="tspan484">No</tspan></text>
</g><g
           id="g488"
           transform="matrix(2.995255,0,0,2.995255,1569.5137,976.45313)"><text
             transform="translate(0.65625,11)"
             style="font-variant:normal;font-weight:normal;font-size:9px;font-family:Helvetica;-inkscape-font-specification:Helvetica;writing-mode:lr-tb;fill:#000000;fill-opacity:1;fill-rule:nonzero;stroke:none"
             id="text492"><tspan
               x="0 5.1767578 10.182129"
               y="0"
               sodipodi:role="line"
               id="tspan490">Yes</tspan></text>
</g><g
           id="g494"
           transform="matrix(2.995255,0,0,2.995255,1.4976275,1.4976275)"><path
             d="m 761,233 h 23.63"
             style="fill:none;stroke:#000000;stroke-width:1;stroke-linecap:butt;stroke-linejoin:miter;stroke-miterlimit:10;stroke-dasharray:none;stroke-opacity:1"
             id="path496"
             inkscape:connector-curvature="0" /><path
             d="m 789.88,233 -7,3.5 1.75,-3.5 -1.75,-3.5 z"
             style="fill:#000000;fill-opacity:1;fill-rule:nonzero;stroke:none"
             id="path498"
             inkscape:connector-curvature="0" /><path
             d="m 789.88,233 -7,3.5 1.75,-3.5 -1.75,-3.5 z"
             style="fill:none;stroke:#000000;stroke-width:1;stroke-linecap:butt;stroke-linejoin:miter;stroke-miterlimit:10;stroke-dasharray:none;stroke-opacity:1"
             id="path500"
             inkscape:connector-curvature="0" /><path
             d="m 751,93.5 h 10 v 253 h -10 z"
             style="fill:#000000;fill-opacity:1;fill-rule:nonzero;stroke:none"
             id="path502"
             inkscape:connector-curvature="0" /><path
             d="m 751,93.5 h 10 v 253 h -10 z"
             style="fill:none;stroke:#000000;stroke-width:1;stroke-linecap:butt;stroke-linejoin:miter;stroke-miterlimit:10;stroke-dasharray:none;stroke-opacity:1"
             id="path504"
             inkscape:connector-curvature="0" /><path
             d="m 516,332 v 73 h 240 v -51.63"
             style="fill:none;stroke:#000000;stroke-width:1;stroke-linecap:butt;stroke-linejoin:miter;stroke-miterlimit:10;stroke-dasharray:none;stroke-opacity:1"
             id="path506"
             inkscape:connector-curvature="0" /><path
             d="m 756,348.12 3.5,7 -3.5,-1.75 -3.5,1.75 z"
             style="fill:#000000;fill-opacity:1;fill-rule:nonzero;stroke:none"
             id="path508"
             inkscape:connector-curvature="0" /><path
             d="m 756,348.12 3.5,7 -3.5,-1.75 -3.5,1.75 z"
             style="fill:none;stroke:#000000;stroke-width:1;stroke-linecap:butt;stroke-linejoin:miter;stroke-miterlimit:10;stroke-dasharray:none;stroke-opacity:1"
             id="path510"
             inkscape:connector-curvature="0" /><path
             d="m 574,352 v 43 h 182 v -41.63"
             style="fill:none;stroke:#000000;stroke-width:1;stroke-linecap:butt;stroke-linejoin:miter;stroke-miterlimit:10;stroke-dasharray:none;stroke-opacity:1"
             id="path512"
             inkscape:connector-curvature="0" /><path
             d="m 756,348.12 3.5,7 -3.5,-1.75 -3.5,1.75 z"
             style="fill:#000000;fill-opacity:1;fill-rule:nonzero;stroke:none"
             id="path514"
             inkscape:connector-curvature="0" /><path
             d="m 756,348.12 3.5,7 -3.5,-1.75 -3.5,1.75 z"
             style="fill:none;stroke:#000000;stroke-width:1;stroke-linecap:butt;stroke-linejoin:miter;stroke-miterlimit:10;stroke-dasharray:none;stroke-opacity:1"
             id="path516"
             inkscape:connector-curvature="0" /><path
             d="m 633,372 v 13 h 124 v -30.63"
             style="fill:none;stroke:#000000;stroke-width:1;stroke-linecap:butt;stroke-linejoin:miter;stroke-miterlimit:10;stroke-dasharray:none;stroke-opacity:1"
             id="path518"
             inkscape:connector-curvature="0" /><path
             d="m 757,349.12 3.5,7 -3.5,-1.75 -3.5,1.75 z"
             style="fill:#000000;fill-opacity:1;fill-rule:nonzero;stroke:none"
             id="path520"
             inkscape:connector-curvature="0" /><path
             d="m 757,349.12 3.5,7 -3.5,-1.75 -3.5,1.75 z"
             style="fill:none;stroke:#000000;stroke-width:1;stroke-linecap:butt;stroke-linejoin:miter;stroke-miterlimit:10;stroke-dasharray:none;stroke-opacity:1"
             id="path522"
             inkscape:connector-curvature="0" /><path
             d="m 107,50 c -1e-5,0.722271 -0.0705,1.437599 -0.21137,2.145988 -0.14091,0.708394 -0.34957,1.396233 -0.62597,2.063523 -0.2764,0.667293 -0.61524,1.301212 -1.0165,1.90176 -0.40127,0.600544 -0.85727,1.156177 -1.36799,1.666901 -0.51073,0.510719 -1.06636,0.966712 -1.66691,1.367984 -0.60055,0.401272 -1.23447,0.740109 -1.90176,1.01651 -0.667287,0.276402 -1.355122,0.485058 -2.063512,0.625969 C 97.437599,60.929543 96.722267,60.999996 96,61 c -0.722275,-4e-6 -1.437607,-0.07046 -2.146004,-0.211369 -0.708389,-0.140907 -1.396232,-0.349563 -2.063522,-0.625965 -0.66729,-0.276401 -1.301209,-0.615238 -1.901749,-1.01651 -0.600548,-0.401272 -1.156181,-0.857265 -1.6669,-1.367984 -0.51072,-0.510724 -0.966721,-1.066357 -1.367997,-1.666901 -0.401275,-0.600548 -0.740112,-1.234467 -1.01651,-1.90176 -0.276397,-0.66729 -0.485054,-1.355129 -0.625961,-2.063523 C 85.07045,51.437599 85,50.722271 85,50 c 0,-0.722271 0.07045,-1.437603 0.211357,-2.145996 0.140907,-0.708393 0.349564,-1.396237 0.625961,-2.063526 0.276398,-0.66729 0.615235,-1.301209 1.01651,-1.901757 0.401276,-0.600544 0.857277,-1.156177 1.367997,-1.6669 0.510719,-0.510723 1.066345,-0.966717 1.666893,-1.367989 0.600547,-0.401272 1.234466,-0.740108 1.901756,-1.01651 0.66729,-0.276401 1.355133,-0.485054 2.063522,-0.625961 C 94.562393,39.070454 95.277725,39 96,39 c 0.722267,0 1.437599,0.07045 2.145988,0.211361 0.70839,0.140907 1.396225,0.34956 2.063512,0.625961 0.66729,0.276402 1.30121,0.615238 1.90176,1.01651 0.60055,0.401272 1.15618,0.857266 1.66691,1.367989 0.51072,0.510723 0.96671,1.066356 1.36798,1.666904 0.40127,0.600544 0.74011,1.234463 1.01652,1.901753 0.2764,0.667289 0.48505,1.355133 0.62596,2.063526 C 106.92954,48.562397 106.99999,49.277729 107,50 Z"
             style="fill:#000000;fill-opacity:1;fill-rule:nonzero;stroke:none"
             id="path524"
             inkscape:connector-curvature="0" /><path
             d="m 107,50 c -1e-5,0.722271 -0.0705,1.437599 -0.21137,2.145988 -0.14091,0.708394 -0.34957,1.396233 -0.62597,2.063523 -0.2764,0.667293 -0.61524,1.301212 -1.0165,1.90176 -0.40127,0.600544 -0.85727,1.156177 -1.36799,1.666901 -0.51073,0.510719 -1.06636,0.966712 -1.66691,1.367984 -0.60055,0.401272 -1.23447,0.740109 -1.90176,1.01651 -0.667287,0.276402 -1.355122,0.485058 -2.063512,0.625969 C 97.437599,60.929543 96.722267,60.999996 96,61 c -0.722275,-4e-6 -1.437607,-0.07046 -2.146004,-0.211369 -0.708389,-0.140907 -1.396232,-0.349563 -2.063522,-0.625965 -0.66729,-0.276401 -1.301209,-0.615238 -1.901749,-1.01651 -0.600548,-0.401272 -1.156181,-0.857265 -1.6669,-1.367984 -0.51072,-0.510724 -0.966721,-1.066357 -1.367997,-1.666901 -0.401275,-0.600548 -0.740112,-1.234467 -1.01651,-1.90176 -0.276397,-0.66729 -0.485054,-1.355129 -0.625961,-2.063523 C 85.07045,51.437599 85,50.722271 85,50 c 0,-0.722271 0.07045,-1.437603 0.211357,-2.145996 0.140907,-0.708393 0.349564,-1.396237 0.625961,-2.063526 0.276398,-0.66729 0.615235,-1.301209 1.01651,-1.901757 0.401276,-0.600544 0.857277,-1.156177 1.367997,-1.6669 0.510719,-0.510723 1.066345,-0.966717 1.666893,-1.367989 0.600547,-0.401272 1.234466,-0.740108 1.901756,-1.01651 0.66729,-0.276401 1.355133,-0.485054 2.063522,-0.625961 C 94.562393,39.070454 95.277725,39 96,39 c 0.722267,0 1.437599,0.07045 2.145988,0.211361 0.70839,0.140907 1.396225,0.34956 2.063512,0.625961 0.66729,0.276402 1.30121,0.615238 1.90176,1.01651 0.60055,0.401272 1.15618,0.857266 1.66691,1.367989 0.51072,0.510723 0.96671,1.066356 1.36798,1.666904 0.40127,0.600544 0.74011,1.234463 1.01652,1.901753 0.2764,0.667289 0.48505,1.355133 0.62596,2.063526 C 106.92954,48.562397 106.99999,49.277729 107,50 Z"
             style="fill:none;stroke:#ff0000;stroke-width:1;stroke-linecap:butt;stroke-linejoin:miter;stroke-miterlimit:10;stroke-dasharray:none;stroke-opacity:1"
             id="path526"
             inkscape:connector-curvature="0" /><path
             d="M 96,65 V 82.760002"
             style="fill:none;stroke:#ff0000;stroke-width:1;stroke-linecap:butt;stroke-linejoin:miter;stroke-miterlimit:10;stroke-dasharray:none;stroke-opacity:1"
             id="path528"
             inkscape:connector-curvature="0" /><path
             d="m 91.5,74.879997 4.5,9 4.5,-9"
             style="fill:none;stroke:#ff0000;stroke-width:1;stroke-linecap:butt;stroke-linejoin:miter;stroke-miterlimit:10;stroke-dasharray:none;stroke-opacity:1"
             id="path530"
             inkscape:connector-curvature="0" /><path
             d="m 817,233 c -6e-5,0.72226 -0.0705,1.43758 -0.21143,2.14597 -0.14093,0.7084 -0.34954,1.39625 -0.62597,2.06353 -0.27637,0.66729 -0.61518,1.30121 -1.01648,1.90175 -0.40125,0.60054 -0.85724,1.15619 -1.36798,1.66692 -0.51068,0.51071 -1.06635,0.9667 -1.66693,1.36798 -0.60059,0.40126 -1.2345,0.7401 -1.9018,1.01649 -0.66723,0.27642 -1.35504,0.48507 -2.06341,0.62598 -0.70844,0.14091 -1.42377,0.21136 -2.146,0.21138 -0.72229,-2e-5 -1.43762,-0.0705 -2.146,-0.21138 -0.70843,-0.14091 -1.3963,-0.34956 -2.06359,-0.62598 -0.6673,-0.27639 -1.30121,-0.61523 -1.90174,-1.01649 -0.60052,-0.40128 -1.15619,-0.85727 -1.66687,-1.36798 -0.51074,-0.51073 -0.9668,-1.06638 -1.3681,-1.66692 -0.40131,-0.60054 -0.74011,-1.23446 -1.01648,-1.90175 -0.27643,-0.66728 -0.48505,-1.35513 -0.62592,-2.06352 C 795.07037,234.43759 794.99994,233.72226 795,233 c -6e-5,-0.72227 0.0703,-1.43762 0.21124,-2.14601 0.14087,-0.70839 0.34949,-1.39624 0.62592,-2.06354 0.27643,-0.66728 0.61529,-1.30121 1.0166,-1.90175 0.40131,-0.60054 0.8573,-1.15617 1.36804,-1.66688 0.51068,-0.51073 1.06635,-0.96674 1.66687,-1.36801 0.60053,-0.40128 1.23444,-0.74012 1.90174,-1.01651 0.66729,-0.27639 1.3551,-0.48504 2.06353,-0.62595 C 804.56238,222.07045 805.27771,222 806,222 c 0.72223,0 1.43756,0.0704 2.146,0.21135 0.70837,0.14091 1.39618,0.34956 2.06341,0.62595 0.6673,0.27639 1.30121,0.61523 1.9018,1.01651 0.60058,0.40127 1.15625,0.85728 1.66693,1.36801 0.51074,0.51071 0.96673,1.06634 1.36798,1.66688 0.4013,0.60054 0.74011,1.23447 1.01654,1.90175 0.27637,0.6673 0.48498,1.35515 0.62591,2.06354 0.14093,0.70839 0.21137,1.42374 0.21143,2.14601 z"
             style="fill:#000000;fill-opacity:1;fill-rule:nonzero;stroke:none"
             id="path532"
             inkscape:connector-curvature="0" /><path
             d="m 817,233 c -6e-5,0.72226 -0.0705,1.43758 -0.21143,2.14597 -0.14093,0.7084 -0.34954,1.39625 -0.62597,2.06353 -0.27637,0.66729 -0.61518,1.30121 -1.01648,1.90175 -0.40125,0.60054 -0.85724,1.15619 -1.36798,1.66692 -0.51068,0.51071 -1.06635,0.9667 -1.66693,1.36798 -0.60059,0.40126 -1.2345,0.7401 -1.9018,1.01649 -0.66723,0.27642 -1.35504,0.48507 -2.06341,0.62598 -0.70844,0.14091 -1.42377,0.21136 -2.146,0.21138 -0.72229,-2e-5 -1.43762,-0.0705 -2.146,-0.21138 -0.70843,-0.14091 -1.3963,-0.34956 -2.06359,-0.62598 -0.6673,-0.27639 -1.30121,-0.61523 -1.90174,-1.01649 -0.60052,-0.40128 -1.15619,-0.85727 -1.66687,-1.36798 -0.51074,-0.51073 -0.9668,-1.06638 -1.3681,-1.66692 -0.40131,-0.60054 -0.74011,-1.23446 -1.01648,-1.90175 -0.27643,-0.66728 -0.48505,-1.35513 -0.62592,-2.06352 C 795.07037,234.43759 794.99994,233.72226 795,233 c -6e-5,-0.72227 0.0703,-1.43762 0.21124,-2.14601 0.14087,-0.70839 0.34949,-1.39624 0.62592,-2.06354 0.27643,-0.66728 0.61529,-1.30121 1.0166,-1.90175 0.40131,-0.60054 0.8573,-1.15617 1.36804,-1.66688 0.51068,-0.51073 1.06635,-0.96674 1.66687,-1.36801 0.60053,-0.40128 1.23444,-0.74012 1.90174,-1.01651 0.66729,-0.27639 1.3551,-0.48504 2.06353,-0.62595 C 804.56238,222.07045 805.27771,222 806,222 c 0.72223,0 1.43756,0.0704 2.146,0.21135 0.70837,0.14091 1.39618,0.34956 2.06341,0.62595 0.6673,0.27639 1.30121,0.61523 1.9018,1.01651 0.60058,0.40127 1.15625,0.85728 1.66693,1.36801 0.51074,0.51071 0.96673,1.06634 1.36798,1.66688 0.4013,0.60054 0.74011,1.23447 1.01654,1.90175 0.27637,0.6673 0.48498,1.35515 0.62591,2.06354 0.14093,0.70839 0.21137,1.42374 0.21143,2.14601 z"
             style="fill:none;stroke:#ff0000;stroke-width:1;stroke-linecap:butt;stroke-linejoin:miter;stroke-miterlimit:10;stroke-dasharray:none;stroke-opacity:1"
             id="path534"
             inkscape:connector-curvature="0" /><path
             d="m 821,233 c -6e-5,0.98491 -0.0961,1.96036 -0.28833,2.92635 -0.19214,0.96598 -0.47668,1.90394 -0.85358,2.81388 -0.37689,0.90995 -0.83892,1.77437 -1.38611,2.5933 -0.54718,0.81892 -1.169,1.57661 -1.86541,2.27307 -0.69647,0.69642 -1.45417,1.31824 -2.27307,1.86542 -0.81897,0.54719 -1.68341,1.00924 -2.59333,1.38615 -0.90997,0.37691 -1.8479,0.66144 -2.8139,0.85359 -0.966,0.19216 -1.94141,0.28822 -2.92627,0.28824 -0.98492,-2e-5 -1.96033,-0.0961 -2.92633,-0.28824 -0.966,-0.19215 -1.90399,-0.47668 -2.81397,-0.85359 -0.90997,-0.37691 -1.77441,-0.83896 -2.59332,-1.38615 -0.81891,-0.54718 -1.57654,-1.169 -2.27301,-1.86542 -0.69641,-0.69646 -1.31824,-1.45415 -1.86542,-2.27307 -0.54724,-0.81893 -1.00927,-1.68335 -1.38617,-2.5933 -0.37689,-0.90994 -0.66143,-1.8479 -0.85357,-2.81388 C 791.09613,234.96036 791.00006,233.98491 791,233 c 6e-5,-0.98491 0.0961,-1.96037 0.28827,-2.92638 0.19208,-0.96598 0.47662,-1.90396 0.85351,-2.8139 0.3769,-0.90996 0.83893,-1.77438 1.38617,-2.59331 0.54718,-0.81892 1.16901,-1.5766 1.86542,-2.27302 0.69647,-0.69644 1.4541,-1.31826 2.27301,-1.86545 0.81891,-0.5472 1.68335,-1.00923 2.59332,-1.38614 0.90998,-0.37691 1.8479,-0.66142 2.81391,-0.85358 0.966,-0.19214 1.94147,-0.2882 2.92639,-0.28822 0.98486,2e-5 1.96027,0.0961 2.92627,0.28822 0.966,0.19216 1.90393,0.47667 2.8139,0.85358 0.90992,0.37691 1.77436,0.83894 2.59333,1.38614 0.8189,0.54719 1.5766,1.16901 2.27307,1.86545 0.69641,0.69642 1.31817,1.4541 1.86535,2.27302 0.54718,0.81893 1.00928,1.68335 1.38617,2.59331 0.3769,0.90994 0.66144,1.84792 0.85358,2.8139 0.1922,0.96601 0.28827,1.94147 0.28833,2.92638 z"
             style="fill:none;stroke:#ff0000;stroke-width:1;stroke-linecap:butt;stroke-linejoin:miter;stroke-miterlimit:10;stroke-dasharray:none;stroke-opacity:1"
             id="path536"
             inkscape:connector-curvature="0" /><path
             d="m 322.5,175.17 21.13,-0.13001"
             style="fill:none;stroke:#000000;stroke-width:1;stroke-linecap:butt;stroke-linejoin:miter;stroke-miterlimit:10;stroke-dasharray:none;stroke-opacity:1"
             id="path538"
             inkscape:connector-curvature="0" /><path
             d="M 348.88,175.00999 341.89999,178.55 343.63,175.03999 341.85999,171.55 Z"
             style="fill:#000000;fill-opacity:1;fill-rule:nonzero;stroke:none"
             id="path540"
             inkscape:connector-curvature="0" /><path
             d="M 348.88,175.00999 341.89999,178.55 343.63,175.03999 341.85999,171.55 Z"
             style="fill:none;stroke:#000000;stroke-width:1;stroke-linecap:butt;stroke-linejoin:miter;stroke-miterlimit:10;stroke-dasharray:none;stroke-opacity:1"
             id="path542"
             inkscape:connector-curvature="0" /><path
             d="m 213.5,160.5 h 109 v 30 h -109 z"
             style="fill:#ffffff;fill-opacity:1;fill-rule:nonzero;stroke:none"
             id="path544"
             inkscape:connector-curvature="0" /><path
             d="m 213.5,160.5 h 109 v 30 h -109 z"
             style="fill:none;stroke:#000000;stroke-width:1;stroke-linecap:butt;stroke-linejoin:miter;stroke-miterlimit:10;stroke-dasharray:none;stroke-opacity:1"
             id="path546"
             inkscape:connector-curvature="0" /></g><g
           id="g548"
           transform="matrix(2.995255,0,0,2.995255,763.79004,509.19336)"><text
             transform="translate(0,11)"
             style="font-variant:normal;font-weight:normal;font-size:12px;font-family:Helvetica;-inkscape-font-specification:Helvetica;writing-mode:lr-tb;fill:#000000;fill-opacity:1;fill-rule:nonzero;stroke:none"
             id="text552"><tspan
               x="0 7.3300781 17.326172"
               y="0"
               sodipodi:role="line"
               id="tspan550">FMU</tspan></text>
</g><g
           id="g554"
           transform="matrix(2.995255,0,0,2.995255,1.4976275,1.4976275)"><path
             d="M 1,1 H 251 V 21 H 1 Z"
             style="fill:#ffffff;fill-opacity:1;fill-rule:nonzero;stroke:none"
             id="path556"
             inkscape:connector-curvature="0" /><path
             d="M 1,1 H 251 V 21 H 1 Z"
             style="fill:none;stroke:#000000;stroke-width:1;stroke-linecap:butt;stroke-linejoin:miter;stroke-miterlimit:10;stroke-dasharray:none;stroke-opacity:1"
             id="path558"
             inkscape:connector-curvature="0" /></g><g
           id="g560"
           transform="matrix(2.995255,0,0,2.995255,23.96204,14.976275)"><text
             transform="translate(0.296875,11)"
             style="font-variant:normal;font-weight:normal;font-size:12px;font-family:Helvetica;-inkscape-font-specification:Helvetica;writing-mode:lr-tb;fill:#000000;fill-opacity:1;fill-rule:nonzero;stroke:none"
             id="text564"><tspan
               x="0 8.6660156 11.332031 18.005859 24.679688 31.353516 38.683594 48.679688 52.013672 55.347656 64.013672 66.679688 72.679688 76.013672 80.009766 82.675781 89.349609 96.023438 99.357422 106.03125 112.70508 116.03906 124.04297 126.70898 136.70508 143.37891 146.04492 152.71875 156.05273 158.71875 165.39258 172.06641 175.40039 182.73047 186.72656 193.40039 203.39648 210.07031 218.73633 225.41016 229.40625"
               y="0"
               sodipodi:role="line"
               id="tspan562">CloudFMI Distributed Simulation Framework</tspan></text>
</g></g></g></g></svg>